<svg preserveAspectRatio="none" width="100%" height="100%" overflow="visible" style="display: block;" viewBox="0 0 20 19" fill="none" xmlns="http://www.w3.org/2000/svg">
<g id="Vector">
<path d="M4.88333 10.1923C5.2868 10.1923 5.61388 9.88235 5.61388 9.5C5.61388 9.11765 5.2868 8.80769 4.88333 8.80769C4.47985 8.80769 4.15277 9.11765 4.15277 9.5C4.15277 9.88235 4.47985 10.1923 4.88333 10.1923Z" stroke="var(--stroke-0, white)" stroke-linecap="round" stroke-linejoin="round"/>
<path d="M9.63193 10.1923C10.0354 10.1923 10.3625 9.88235 10.3625 9.5C10.3625 9.11765 10.0354 8.80769 9.63193 8.80769C9.22845 8.80769 8.90137 9.11765 8.90137 9.5C8.90137 9.88235 9.22845 10.1923 9.63193 10.1923Z" stroke="var(--stroke-0, white)" stroke-linecap="round" stroke-linejoin="round"/>
<path d="M14.3805 10.1923C14.784 10.1923 15.1111 9.88235 15.1111 9.5C15.1111 9.11765 14.784 8.80769 14.3805 8.80769C13.9771 8.80769 13.65 9.11765 13.65 9.5C13.65 9.88235 13.9771 10.1923 14.3805 10.1923Z" stroke="var(--stroke-0, white)" stroke-linecap="round" stroke-linejoin="round"/>
<path d="M9.9972 0.500002C8.27929 0.500508 6.5937 0.942578 5.11994 1.77913C3.64619 2.61568 2.43948 3.81537 1.62832 5.25044C0.817173 6.68551 0.431964 8.30221 0.513725 9.92834C0.595486 11.5545 1.14115 13.1291 2.09261 14.4846L0.500006 18.5L5.83305 17.5862C7.11723 18.1808 8.52649 18.4932 9.95578 18.4999C11.3851 18.5066 12.7975 18.2075 14.0879 17.6249C15.3782 17.0423 16.5131 16.1912 17.408 15.1351C18.3029 14.079 18.9348 12.845 19.2564 11.5253C19.5781 10.2056 19.5812 8.83403 19.2656 7.51298C18.9501 6.19192 18.3239 4.9554 17.4339 3.89558C16.5438 2.83577 15.4128 1.98 14.1252 1.39207C12.8376 0.804134 11.4265 0.499202 9.9972 0.500002Z" stroke="var(--stroke-0, white)" stroke-linecap="round" stroke-linejoin="round"/>
</g>
</svg>
