<svg preserveAspectRatio="none" width="100%" height="100%" overflow="visible" style="display: block;" viewBox="0 0 66 64" fill="none" xmlns="http://www.w3.org/2000/svg">
<path id="Vector" d="M8.24999 64C5.98125 64 4.03975 63.196 2.4255 61.5879C0.811249 59.9799 0.00275 58.0445 0 55.7817V47.5634C0 46.3992 0.396 45.4239 1.188 44.6377C1.98 43.8515 2.959 43.457 4.125 43.4543C5.291 43.4515 6.27137 43.846 7.06612 44.6377C7.86087 45.4294 8.25549 46.4046 8.24999 47.5634V55.7817H57.75V47.5634C57.75 46.3992 58.146 45.4239 58.938 44.6377C59.73 43.8515 60.709 43.457 61.8749 43.4543C63.0409 43.4515 64.0213 43.846 64.8161 44.6377C65.6108 45.4294 66.0054 46.4046 65.9999 47.5634V55.7817C65.9999 58.0417 65.1928 59.9771 63.5786 61.5879C61.9643 63.1987 60.0215 64.0027 57.75 64H8.24999ZM28.875 14.0739L21.1406 21.7785C20.3156 22.6004 19.3366 22.9948 18.2036 22.962C17.0706 22.9291 16.0902 22.5004 15.2625 21.6758C14.5062 20.854 14.1102 19.8952 14.0745 18.7994C14.0387 17.7036 14.4347 16.7448 15.2625 15.923L30.1125 1.13008C30.525 0.719162 30.9718 0.428783 31.4531 0.258938C31.9343 0.0890936 32.45 0.00280265 33 6.32184e-05C33.55 -0.00267621 34.0656 0.0836147 34.5468 0.258938C35.0281 0.434262 35.475 0.724641 35.8875 1.13008L50.7375 15.923C51.5625 16.7448 51.9585 17.7036 51.9255 18.7994C51.8925 19.8952 51.4965 20.854 50.7375 21.6758C49.9125 22.4976 48.9335 22.9263 47.8005 22.962C46.6675 22.9976 45.6871 22.6031 44.8593 21.7785L37.125 14.0739V43.4543C37.125 44.6185 36.729 45.5951 35.937 46.3841C35.145 47.173 34.166 47.5662 33 47.5634C31.834 47.5607 30.855 47.1662 30.063 46.38C29.271 45.5938 28.875 44.6185 28.875 43.4543V14.0739Z" fill="var(--fill-0, #E2A4FF)"/>
</svg>
