<svg preserveAspectRatio="none" width="100%" height="100%" overflow="visible" style="display: block;" viewBox="0 0 82 50" fill="none" xmlns="http://www.w3.org/2000/svg">
<path id="Vector" d="M81.6721 2.58209C81.2562 1.56445 80.4603 0.75578 79.4587 0.333172C78.966 0.119771 78.4368 0.0065801 77.9012 0H57.4071C56.3201 0 55.2775 0.438776 54.5088 1.2198C53.7402 2.00082 53.3083 3.06012 53.3083 4.16465C53.3083 5.26919 53.7402 6.32848 54.5088 7.10951C55.2775 7.89053 56.3201 8.32931 57.4071 8.32931H68.0231L45.1107 31.6097L31.6256 17.8664C31.2446 17.476 30.7912 17.1662 30.2918 16.9548C29.7923 16.7433 29.2565 16.6345 28.7154 16.6345C28.1744 16.6345 27.6386 16.7433 27.1391 16.9548C26.6397 17.1662 26.1863 17.476 25.8053 17.8664L1.21242 42.8543C0.828246 43.2415 0.523318 43.7021 0.315227 44.2096C0.107136 44.7171 0 45.2614 0 45.8112C0 46.361 0.107136 46.9053 0.315227 47.4128C0.523318 47.9203 0.828246 48.3809 1.21242 48.7681C1.59346 49.1584 2.04679 49.4683 2.54627 49.6797C3.04575 49.8911 3.58149 50 4.12258 50C4.66367 50 5.19941 49.8911 5.69888 49.6797C6.19836 49.4683 6.6517 49.1584 7.03273 48.7681L28.7154 26.6954L42.2005 40.4388C42.5816 40.8291 43.0349 41.139 43.5344 41.3504C44.0339 41.5618 44.5696 41.6707 45.1107 41.6707C45.6518 41.6707 46.1875 41.5618 46.687 41.3504C47.1865 41.139 47.6398 40.8291 48.0209 40.4388L73.8024 14.2015V24.9879C73.8024 26.0925 74.2342 27.1518 75.0029 27.9328C75.7716 28.7138 76.8141 29.1526 77.9012 29.1526C78.9883 29.1526 80.0308 28.7138 80.7995 27.9328C81.5682 27.1518 82 26.0925 82 24.9879V4.16465C81.9935 3.62043 81.8821 3.08277 81.6721 2.58209Z" fill="var(--fill-0, #E2A4FF)"/>
</svg>
