<svg preserveAspectRatio="none" width="100%" height="100%" overflow="visible" style="display: block;" viewBox="0 0 41.071 40.2328" fill="none" xmlns="http://www.w3.org/2000/svg">
<g id="logo-15">
<path id="Vector" opacity="0.4" d="M20.5355 10.6869C20.5355 15.8947 16.3137 20.1164 11.1059 20.1164H1.67637V10.6869C1.67637 5.47905 5.89813 1.2573 11.1059 1.2573C16.3137 1.2573 20.5355 5.47905 20.5355 10.6869Z" fill="var(--fill-0, #BB7CE4)"/>
<path id="Vector_2" opacity="0.4" d="M20.5355 29.546C20.5355 24.3382 24.7573 20.1164 29.9651 20.1164H39.3946V29.546C39.3946 34.7538 35.1729 38.9756 29.9651 38.9756C24.7573 38.9756 20.5355 34.7538 20.5355 29.546Z" fill="var(--fill-0, #BB7CE4)"/>
<path id="Vector_3" d="M1.67637 29.546C1.67637 34.7538 5.89813 38.9756 11.1059 38.9756H20.5355V29.546C20.5355 24.3382 16.3137 20.1164 11.1059 20.1164C5.89813 20.1164 1.67637 24.3382 1.67637 29.546Z" fill="var(--fill-0, #BB7CE4)"/>
<path id="Vector_4" d="M39.3946 10.6869C39.3946 5.47905 35.1729 1.2573 29.9651 1.2573H20.5355V10.6869C20.5355 15.8947 24.7573 20.1164 29.9651 20.1164C35.1729 20.1164 39.3946 15.8947 39.3946 10.6869Z" fill="var(--fill-0, #BB7CE4)"/>
</g>
</svg>
