<svg preserveAspectRatio="none" width="100%" height="100%" overflow="visible" style="display: block;" viewBox="0 0 79.9999 79.9919" fill="none" xmlns="http://www.w3.org/2000/svg">
<g id="Group">
<path id="Vector (Stroke)" d="M7.55478e-07 39.994C4.41026e-07 31.3787 -0.00457902 24.6074 0.705022 19.328C1.42656 13.9605 2.9356 9.67468 6.30514 6.30514H6.30914C9.42998 3.18721 13.335 1.65578 18.1663 0.87327C22.909 0.105329 28.8654 0.0128412 36.3006 4.6793e-06C37.9997 -0.00292838 39.3781 1.37338 39.3811 3.07246C39.3833 4.77053 38.0107 6.14933 36.3126 6.15292C28.7764 6.16593 23.3247 6.27043 19.1518 6.94607C15.0688 7.60719 12.548 8.76827 10.6554 10.6595L10.6514 10.6554C8.617 12.6909 7.43149 15.4648 6.80186 20.1492C6.16028 24.9233 6.15292 31.2054 6.15292 39.994C6.15292 48.7834 6.16013 55.0679 6.80186 59.8427C7.43141 64.5258 8.62125 67.2952 10.6554 69.3325C12.6954 71.3696 15.4676 72.5603 20.1532 73.1901C24.9275 73.8318 31.2088 73.839 39.998 73.839C48.7863 73.839 55.0686 73.8316 59.8427 73.1901C64.5287 72.5602 67.3008 71.3721 69.3365 69.3365C71.2281 67.4463 72.3852 64.9269 73.0458 60.8442C73.7211 56.6715 73.826 51.2211 73.839 43.6833C73.8419 41.9842 75.2244 40.6079 76.9235 40.6109C78.6215 40.6147 79.9944 41.9932 79.9919 43.6913C79.9791 51.127 79.8898 57.0832 79.1227 61.8256C78.3894 66.357 76.9961 70.0759 74.2516 73.0939L73.6868 73.6868C70.3171 77.0565 66.0318 78.5694 60.6639 79.2909C55.3845 80.0004 48.6132 79.9919 39.998 79.9919C31.3826 79.9919 24.6114 80.0005 19.332 79.2909C13.9643 78.5693 9.68172 77.0547 6.30914 73.6868H6.30514C2.93612 70.3155 1.42652 66.0283 0.705022 60.6599C-0.00447083 55.3801 7.55478e-07 48.609 7.55478e-07 39.994Z" fill="var(--fill-0, #E2A4FF)"/>
<path id="Vector (Stroke)_2" d="M79.9999 22.8112C79.9999 24.5103 78.6225 25.8877 76.9234 25.8877C75.2244 25.8876 73.847 24.5102 73.847 22.8112V10.5054L47.4247 36.9277H54.7673C56.4663 36.9277 57.8437 38.3052 57.8438 40.0041C57.8438 41.7032 56.4664 43.0806 54.7673 43.0806H39.9979C38.2988 43.0806 36.9214 41.7032 36.9214 40.0041V25.2347C36.9214 23.5357 38.2988 22.1583 39.9979 22.1583C41.697 22.1583 43.0744 23.5357 43.0744 25.2347V32.5774L69.4966 6.15509H57.1908C55.4917 6.15509 54.1144 4.77771 54.1144 3.07863C54.1144 1.37955 55.4917 0.00216974 57.1908 0.00216974H76.9234C78.6225 0.00216974 79.9999 1.37955 79.9999 3.07863V22.8112Z" fill="var(--fill-0, #E2A4FF)"/>
</g>
</svg>
