<svg preserveAspectRatio="none" width="100%" height="100%" overflow="visible" style="display: block;" viewBox="0 0 80.0002 80.0001" fill="none" xmlns="http://www.w3.org/2000/svg">
<g id="Group 164427">
<path id="Vector" d="M28.5714 4.04286L24.5314 0L14.2857 10.2486L4.04 0L0 4.04286L10.2457 14.2857L0 24.5314L4.04 28.5714L14.2857 18.3257L24.5314 28.5714L28.5714 24.5314L18.3257 14.2857L28.5714 4.04286ZM65.7143 0L51.4286 14.2857L55.4543 18.34L62.8571 10.84V37.1429H17.1429C13.9914 37.1429 11.4286 39.7086 11.4286 42.8571V51.7171C4.91429 53.0429 0 58.8143 0 65.7143C0 73.5914 6.40857 80 14.2857 80C22.1629 80 28.5714 73.5914 28.5714 65.7143C28.5661 62.4229 27.4266 59.2339 25.345 56.6844C23.2633 54.1349 20.3667 52.3807 17.1429 51.7171V42.8571H62.8571C66.0086 42.8571 68.5714 40.2943 68.5714 37.1429V10.9914L75.9743 18.34L80 14.2857L65.7143 0ZM22.8571 65.7143C22.8571 70.44 19.0114 74.2857 14.2857 74.2857C9.56 74.2857 5.71429 70.44 5.71429 65.7143C5.71429 60.9886 9.56 57.1429 14.2857 57.1429C19.0114 57.1429 22.8571 60.9886 22.8571 65.7143Z" fill="var(--fill-0, #E2A4FF)"/>
<path id="Vector_2" d="M80.0002 55.4715L75.9602 51.4286L65.7145 61.6772L55.4688 51.4286L51.4288 55.4715L61.6745 65.7144L51.4288 75.9601L55.4688 80.0001L65.7145 69.7544L75.9602 80.0001L80.0002 75.9601L69.7545 65.7144L80.0002 55.4715Z" fill="var(--fill-0, #E2A4FF)"/>
</g>
</svg>
