<svg preserveAspectRatio="none" width="100%" height="100%" overflow="visible" style="display: block;" viewBox="0 0 17 16" fill="none" xmlns="http://www.w3.org/2000/svg">
<g id="plus (1) 8" clip-path="url(#clip0_2003_928)">
<path id="Vector" d="M16.1499 7.2H9.35005V0.799951C9.35005 0.358447 8.9692 0 8.49995 0C8.03085 0 7.65 0.358447 7.65 0.799951V7.2H0.849948C0.38085 7.2 0 7.55845 0 7.99995C0 8.4416 0.38085 8.80005 0.849948 8.80005H7.65V15.2C7.65 15.6416 8.03085 16 8.49995 16C8.9692 16 9.35005 15.6416 9.35005 15.2V8.80005H16.1499C16.6192 8.80005 17.0001 8.4416 17.0001 7.99995C17.0001 7.55845 16.6192 7.2 16.1499 7.2Z" fill="var(--fill-0, white)"/>
</g>
<defs>
<clipPath id="clip0_2003_928">
<rect width="17" height="16" fill="white"/>
</clipPath>
</defs>
</svg>
