<svg preserveAspectRatio="none" width="100%" height="100%" overflow="visible" style="display: block;" viewBox="0 0 34 56" fill="none" xmlns="http://www.w3.org/2000/svg">
<path id="Vector" d="M28.3333 18.2H34C34 10.2564 26.1942 6.6332 19.8333 5.7988V0H14.1667V5.7988C7.80583 6.6332 0 10.2564 0 18.2C0 25.7768 7.55366 29.7164 14.1667 30.604V44.52C10.064 43.8172 5.66667 41.6528 5.66667 37.8H0C0 45.0492 6.87083 49.3332 14.1667 50.2208V56H19.8333V50.204C26.1942 49.3696 34 45.7436 34 37.8C34 29.8564 26.1942 26.2332 19.8333 25.3988V11.48C23.6017 12.1492 28.3333 14.1148 28.3333 18.2ZM5.66667 18.2C5.66667 14.1148 10.3983 12.1492 14.1667 11.48V24.9172C10.2822 24.2088 5.66667 22.1116 5.66667 18.2ZM28.3333 37.8C28.3333 41.8852 23.6017 43.8508 19.8333 44.52V31.08C23.6017 31.7492 28.3333 33.7148 28.3333 37.8Z" fill="var(--fill-0, #E2A4FF)"/>
</svg>
