<svg preserveAspectRatio="none" width="100%" height="100%" overflow="visible" style="display: block;" viewBox="0 0 14.8652 14.8652" fill="none" xmlns="http://www.w3.org/2000/svg">
<path id="Icon" fill-rule="evenodd" clip-rule="evenodd" d="M7.43262 14.8652C11.5375 14.8652 14.8652 11.5375 14.8652 7.43262C14.8652 3.3277 11.5375 0 7.43262 0C3.3277 0 0 3.3277 0 7.43262C0 11.5375 3.3277 14.8652 7.43262 14.8652ZM10.8768 6.23143C11.2396 5.8686 11.2396 5.28034 10.8768 4.91751C10.514 4.55468 9.92573 4.55468 9.5629 4.91751L6.50355 7.97686L5.30235 6.77567C4.93952 6.41284 4.35126 6.41284 3.98843 6.77567C3.62561 7.13849 3.62561 7.72675 3.98843 8.08958L5.84659 9.94774C6.20942 10.3106 6.79768 10.3106 7.1605 9.94774L10.8768 6.23143Z" fill="var(--fill-0, #7F7F7F)"/>
</svg>
