<svg preserveAspectRatio="none" width="100%" height="100%" overflow="visible" style="display: block;" viewBox="0 0 33.5274 33.5274" fill="none" xmlns="http://www.w3.org/2000/svg">
<g id="logo-89" clip-path="url(#clip0_2001_967)">
<path id="Vector" d="M33.4812 18.0208H27.4927C22.2617 18.0208 18.0212 22.2614 18.0212 27.4923V33.4808C26.2772 32.8686 32.869 26.2769 33.4812 18.0208Z" fill="var(--fill-0, #BB7CE4)"/>
<path id="Vector_2" d="M15.5066 33.4808V27.4923C15.5066 22.2614 11.2661 18.0208 6.03513 18.0208H0.0466489C0.658803 26.2769 7.25058 32.8686 15.5066 33.4808Z" fill="var(--fill-0, #BB7CE4)"/>
<path id="Vector_3" d="M33.4812 15.5063C32.869 7.25027 26.2772 0.658491 18.0212 0.0463361V6.03482C18.0212 11.2658 22.2617 15.5063 27.4927 15.5063H33.4812Z" fill="var(--fill-0, #BB7CE4)"/>
<path id="Vector_4" d="M15.5067 0.0464155C7.25066 0.65857 0.658876 7.25035 0.046722 15.5064H6.03521C11.2662 15.5064 15.5067 11.2659 15.5067 6.0349V0.0464155Z" fill="var(--fill-0, #BB7CE4)"/>
<path id="Vector_5" opacity="0.4" d="M11.3851 16.7636C13.7089 15.6025 15.6028 13.7086 16.7638 11.3847C17.925 13.7086 19.8188 15.6025 22.1427 16.7636C19.8188 17.9247 17.925 19.8185 16.7638 22.1424C15.6028 19.8185 13.7089 17.9247 11.3851 16.7636Z" fill="var(--fill-0, #BB7CE4)"/>
</g>
<defs>
<clipPath id="clip0_2001_967">
<rect width="33.5274" height="33.5274" fill="white"/>
</clipPath>
</defs>
</svg>
