<svg preserveAspectRatio="none" width="100%" height="100%" overflow="visible" style="display: block;" viewBox="0 0 41.9092 42.7474" fill="none" xmlns="http://www.w3.org/2000/svg">
<g id="logo-52" clip-path="url(#clip0_2001_928)">
<path id="Vector" fill-rule="evenodd" clip-rule="evenodd" d="M21.0608 42.0418C32.6338 42.0418 42.0154 32.7059 42.0154 21.1895C42.0154 9.67304 32.6338 0.337121 21.0608 0.337121C9.48791 0.337121 0.106235 9.67304 0.106235 21.1895C0.106235 32.7059 9.48791 42.0418 21.0608 42.0418ZM24.2951 16.4483C26.0813 14.6707 26.0813 11.7888 24.2951 10.0112C22.5089 8.23369 19.6128 8.23369 17.8266 10.0112C16.0404 11.7888 16.0404 14.6707 17.8266 16.4483L21.0608 19.6667L24.2951 16.4483ZM25.8253 24.408C27.6116 26.1856 30.5076 26.1856 32.2939 24.408C34.0801 22.6305 34.0801 19.7486 32.2939 17.971C30.5076 16.1935 27.6116 16.1935 25.8253 17.971L22.5911 21.1896L25.8253 24.408ZM24.2951 32.3678C26.0813 30.5902 26.0813 27.7083 24.2951 25.9308L21.0608 22.7123L17.8266 25.9308C16.0404 27.7083 16.0404 30.5902 17.8266 32.3678C19.6128 34.1454 22.5089 34.1454 24.2951 32.3678ZM9.82773 24.408C8.04152 22.6305 8.04152 19.7486 9.82773 17.971C11.614 16.1935 14.5101 16.1935 16.2963 17.971L19.5306 21.1896L16.2963 24.408C14.5101 26.1856 11.614 26.1856 9.82773 24.408Z" fill="var(--fill-0, #BB7CE4)"/>
</g>
<defs>
<clipPath id="clip0_2001_928">
<rect width="41.9092" height="42.7474" fill="white"/>
</clipPath>
</defs>
</svg>
