<svg preserveAspectRatio="none" width="100%" height="100%" overflow="visible" style="display: block;" viewBox="0 0 10 5.37005" fill="none" xmlns="http://www.w3.org/2000/svg">
<path id="Vector" fill-rule="evenodd" clip-rule="evenodd" d="M9.81687 5.18691C9.69957 5.30417 9.5405 5.37005 9.37464 5.37005C9.20879 5.37005 9.04972 5.30417 8.93242 5.18691L4.99622 1.25071L1.06002 5.18691C0.942055 5.30085 0.784055 5.36389 0.620054 5.36247C0.456053 5.36104 0.299172 5.29526 0.183202 5.17929C0.0672309 5.06332 0.00144877 4.90644 2.3645e-05 4.74244C-0.00140148 4.57844 0.0616445 4.42044 0.175582 4.30247L4.11178 0.366269C4.34638 0.131747 4.66451 0 4.99622 0C5.32794 0 5.64607 0.131747 5.88066 0.366269L9.81687 4.30247C9.93413 4.41977 10 4.57883 10 4.74469C10 4.91055 9.93413 5.06961 9.81687 5.18691Z" fill="var(--fill-0, #E1C8FF)"/>
</svg>
