<svg preserveAspectRatio="none" width="100%" height="100%" overflow="visible" style="display: block;" viewBox="0 0 33.5274 33.5274" fill="none" xmlns="http://www.w3.org/2000/svg">
<g id="Frame" clip-path="url(#clip0_2003_865)">
<path id="Vector" d="M16.7637 -5.78897e-05C26.0223 -5.78897e-05 33.5274 7.50504 33.5274 16.7636V28.4982C33.5274 29.832 32.9975 31.1112 32.0544 32.0543C31.1113 32.9975 29.8321 33.5273 28.4983 33.5273H17.6019V26.1731C17.6019 24.495 17.7041 22.7566 18.5842 21.3284C19.2143 20.3048 20.0572 19.4287 21.0557 18.7596C22.0541 18.0904 23.1848 17.6438 24.3711 17.4501L24.6921 17.3981C24.8244 17.3529 24.9393 17.2674 25.0207 17.1536C25.102 17.0399 25.1458 16.9035 25.1458 16.7636C25.1458 16.6238 25.102 16.4874 25.0207 16.3736C24.9393 16.2598 24.8244 16.1744 24.6921 16.1291L24.3711 16.0771C22.6378 15.794 21.0373 14.9736 19.7955 13.7318C18.5537 12.49 17.7333 10.8895 17.4502 9.15626L17.3982 8.83524C17.353 8.70289 17.2675 8.588 17.1537 8.50665C17.0399 8.42531 16.9036 8.38157 16.7637 8.38157C16.6238 8.38157 16.4875 8.42531 16.3737 8.50665C16.2599 8.588 16.1744 8.70289 16.1292 8.83524L16.0772 9.15626C15.8835 10.3425 15.437 11.4732 14.7678 12.4717C14.0987 13.4702 13.2225 14.313 12.199 14.9431C10.7707 15.8232 9.03229 15.9254 7.35425 15.9254H0.0201373C0.458507 7.05661 7.78675 -5.78897e-05 16.7637 -5.78897e-05Z" fill="var(--fill-0, #BB7CE4)"/>
<path id="Vector_2" opacity="0.4" d="M0 17.6019H7.35423C9.03227 17.6019 10.7707 17.7041 12.1989 18.5842C13.3154 19.2722 14.2552 20.212 14.9431 21.3284C15.8232 22.7567 15.9255 24.4951 15.9255 26.1731V33.5274H5.0291C3.6953 33.5274 2.41613 32.9975 1.47299 32.0544C0.52985 31.1112 0 29.8321 0 28.4983L0 17.6019ZM33.5274 1.67637C33.5274 2.12097 33.3507 2.54736 33.0364 2.86174C32.722 3.17612 32.2956 3.35274 31.851 3.35274C31.4064 3.35274 30.98 3.17612 30.6656 2.86174C30.3512 2.54736 30.1746 2.12097 30.1746 1.67637C30.1746 1.23177 30.3512 0.805377 30.6656 0.490997C30.98 0.176617 31.4064 0 31.851 0C32.2956 0 32.722 0.176617 33.0364 0.490997C33.3507 0.805377 33.5274 1.23177 33.5274 1.67637Z" fill="var(--fill-0, #BB7CE4)"/>
</g>
<defs>
<clipPath id="clip0_2003_865">
<rect width="33.5274" height="33.5274" fill="white"/>
</clipPath>
</defs>
</svg>
