<svg preserveAspectRatio="none" width="100%" height="100%" overflow="visible" style="display: block;" viewBox="0 0 41.071 40.2328" fill="none" xmlns="http://www.w3.org/2000/svg">
<g id="logo-13">
<path id="Vector" d="M1.66331 24.5503C1.66331 22.656 2.03641 20.7801 2.76135 19.0301C3.48631 17.2799 4.54884 15.6897 5.88836 14.3502C7.22787 13.0107 8.81804 11.9481 10.5682 11.2232C12.3184 10.4983 14.1941 10.1252 16.0885 10.1252V24.5503H1.66331Z" fill="var(--fill-0, #BB7CE4)"/>
<path id="Vector_2" d="M1.66331 24.5503C1.66331 26.4446 2.03641 28.3204 2.76135 30.0706C3.48631 31.8208 4.54884 33.411 5.88836 34.7505C7.22787 36.09 8.81804 37.1525 10.5682 37.8775C12.3184 38.6024 14.1941 38.9755 16.0885 38.9755V24.5503H1.66331Z" fill="var(--fill-0, #BB7CE4)"/>
<path id="Vector_3" d="M30.5135 24.5503C30.5135 26.4446 30.1407 28.3204 29.4158 30.0706C28.6909 31.8208 27.6284 33.411 26.2886 34.7505C24.9491 36.09 23.3589 37.1525 21.6087 37.8775C19.8587 38.6024 17.9828 38.9755 16.0885 38.9755V24.5503H30.5135Z" fill="var(--fill-0, #BB7CE4)"/>
<path id="Vector_4" opacity="0.4" d="M39.4077 12.0883C39.4077 18.0701 34.5583 22.9193 28.5766 22.9193H17.7457V12.0883C17.7457 6.10654 22.5949 1.25731 28.5766 1.25731C34.5583 1.25731 39.4077 6.10654 39.4077 12.0883Z" fill="var(--fill-0, #BB7CE4)"/>
</g>
</svg>
