<svg preserveAspectRatio="none" width="100%" height="100%" overflow="visible" style="display: block;" viewBox="0 0 113 113" fill="none" xmlns="http://www.w3.org/2000/svg">
<g id="carbon:result">
<path id="Vector" d="M49.4375 81.2188H77.6875V88.2812H49.4375V81.2188ZM35.3125 81.2188H42.375V88.2812H35.3125V81.2188ZM49.4375 63.5625H77.6875V70.625H49.4375V63.5625ZM35.3125 63.5625H42.375V70.625H35.3125V63.5625ZM49.4375 45.9062H77.6875V52.9688H49.4375V45.9062ZM35.3125 45.9062H42.375V52.9688H35.3125V45.9062Z" fill="var(--fill-0, #F9A9FF)"/>
<path id="Vector_2" d="M88.2812 17.6562H77.6875V14.125C77.6875 12.2519 76.9434 10.4555 75.6189 9.13106C74.2945 7.80658 72.4981 7.0625 70.625 7.0625H42.375C40.5019 7.0625 38.7055 7.80658 37.3811 9.13106C36.0566 10.4555 35.3125 12.2519 35.3125 14.125V17.6562H24.7188C22.8457 17.6563 21.0493 18.4003 19.7248 19.7248C18.4003 21.0493 17.6563 22.8457 17.6562 24.7188V98.875C17.6563 100.748 18.4003 102.544 19.7248 103.869C21.0493 105.193 22.8457 105.938 24.7188 105.938H88.2812C90.1543 105.938 91.9507 105.193 93.2752 103.869C94.5997 102.544 95.3438 100.748 95.3438 98.875V24.7188C95.3438 22.8457 94.5997 21.0493 93.2752 19.7248C91.9507 18.4003 90.1543 17.6563 88.2812 17.6562ZM42.375 14.125H70.625V28.25H42.375V14.125ZM88.2812 98.875H24.7188V24.7188H35.3125V35.3125H77.6875V24.7188H88.2812V98.875Z" fill="var(--fill-0, #F9A9FF)"/>
</g>
</svg>
