<svg preserveAspectRatio="none" width="100%" height="100%" overflow="visible" style="display: block;" viewBox="0 0 107 114" fill="none" xmlns="http://www.w3.org/2000/svg">
<g id="formkit:people">
<path id="Vector" d="M53.5 49.875C48.7703 49.875 44.2343 47.9983 40.8899 44.6578C37.5455 41.3173 35.6667 36.7867 35.6667 32.0625C35.6667 27.3383 37.5455 22.8077 40.8899 19.4672C44.2343 16.1267 48.7703 14.25 53.5 14.25C58.2297 14.25 62.7657 16.1267 66.1101 19.4672C69.4545 22.8077 71.3333 27.3383 71.3333 32.0625C71.3333 36.7867 69.4545 41.3173 66.1101 44.6578C62.7657 47.9983 58.2297 49.875 53.5 49.875ZM53.5 21.375C47.5793 21.375 42.8 26.1488 42.8 32.0625C42.8 37.9762 47.5793 42.75 53.5 42.75C59.4207 42.75 64.2 37.9762 64.2 32.0625C64.2 26.1488 59.4207 21.375 53.5 21.375Z" fill="var(--fill-0, #F9A9FF)"/>
<path id="Vector_2" d="M96.3 78.375C94.3027 78.375 92.7333 76.8075 92.7333 74.8125C92.7333 72.8175 94.3027 71.25 96.3 71.25C98.2973 71.25 99.8667 69.6825 99.8667 67.6875C99.8667 62.9633 97.9878 58.4327 94.6434 55.0922C91.299 51.7517 86.763 49.875 82.0333 49.875H74.9C72.9027 49.875 71.3333 48.3075 71.3333 46.3125C71.3333 44.3175 72.9027 42.75 74.9 42.75C80.8207 42.75 85.6 37.9762 85.6 32.0625C85.6 26.1488 80.8207 21.375 74.9 21.375C72.9027 21.375 71.3333 19.8075 71.3333 17.8125C71.3333 15.8175 72.9027 14.25 74.9 14.25C79.6297 14.25 84.1657 16.1267 87.5101 19.4672C90.8545 22.8077 92.7333 27.3383 92.7333 32.0625C92.7333 36.48 91.164 40.47 88.4533 43.605C99.082 46.455 107 56.145 107 67.6875C107 73.6012 102.221 78.375 96.3 78.375ZM10.7 78.375C4.77933 78.375 0 73.6012 0 67.6875C0 56.145 7.84667 46.455 18.5467 43.605C15.9073 40.47 14.2667 36.48 14.2667 32.0625C14.2667 27.3383 16.1455 22.8077 19.4899 19.4672C22.8343 16.1267 27.3703 14.25 32.1 14.25C34.0973 14.25 35.6667 15.8175 35.6667 17.8125C35.6667 19.8075 34.0973 21.375 32.1 21.375C26.1793 21.375 21.4 26.1488 21.4 32.0625C21.4 37.9762 26.1793 42.75 32.1 42.75C34.0973 42.75 35.6667 44.3175 35.6667 46.3125C35.6667 48.3075 34.0973 49.875 32.1 49.875H24.9667C20.237 49.875 15.701 51.7517 12.3566 55.0922C9.0122 58.4327 7.13333 62.9633 7.13333 67.6875C7.13333 69.6825 8.70267 71.25 10.7 71.25C12.6973 71.25 14.2667 72.8175 14.2667 74.8125C14.2667 76.8075 12.6973 78.375 10.7 78.375ZM74.9 99.75H32.1C26.1793 99.75 21.4 94.9762 21.4 89.0625V81.9375C21.4 68.1863 32.5993 57 46.3667 57H60.6333C74.4007 57 85.6 68.1863 85.6 81.9375V89.0625C85.6 94.9762 80.8207 99.75 74.9 99.75ZM46.3667 64.125C41.637 64.125 37.101 66.0017 33.7566 69.3422C30.4122 72.6827 28.5333 77.2133 28.5333 81.9375V89.0625C28.5333 91.0575 30.1027 92.625 32.1 92.625H74.9C76.8973 92.625 78.4667 91.0575 78.4667 89.0625V81.9375C78.4667 77.2133 76.5878 72.6827 73.2434 69.3422C69.899 66.0017 65.363 64.125 60.6333 64.125H46.3667Z" fill="var(--fill-0, #F9A9FF)"/>
</g>
</svg>
