<svg preserveAspectRatio="none" width="100%" height="100%" overflow="visible" style="display: block;" viewBox="0 0 86.9375 95.8547" fill="none" xmlns="http://www.w3.org/2000/svg">
<g id="Group">
<path id="Vector (Stroke)" d="M0 38.649C0.000132247 17.2695 17.4992 0 39.0104 0C40.8571 0 42.3542 1.49705 42.3542 3.34375C42.3542 5.19045 40.8571 6.6875 39.0104 6.6875C21.1279 6.6875 6.68763 21.0273 6.6875 38.649C6.6875 44.6737 8.36813 50.3021 11.2939 55.1022C12.2551 56.679 11.7561 58.7387 10.1793 59.6999C8.60307 60.6599 6.54736 60.1606 5.58598 58.5853C2.03867 52.7659 0 45.9364 0 38.649Z" fill="var(--fill-0, #F9A9FF)"/>
<path id="Vector (Stroke)_2" d="M64.6458 52.3854V46.8125H57.9583V52.3854C57.9583 54.2321 56.4613 55.7292 54.6146 55.7292C52.7679 55.7292 51.2708 54.2321 51.2708 52.3854V46.573C49.7568 46.3417 48.1781 45.8357 46.8691 44.5267C45.5599 43.2176 45.0497 41.6392 44.8184 40.125H39.0104C37.1637 40.125 35.6667 38.6279 35.6667 36.7812C35.6667 34.9345 37.1637 33.4375 39.0104 33.4375H44.5833V26.75H39.0104C37.1637 26.75 35.6667 25.253 35.6667 23.4062C35.6667 21.5595 37.1637 20.0625 39.0104 20.0625H44.8184C45.0497 18.5483 45.5599 16.9699 46.8691 15.6608C48.1783 14.3516 49.7566 13.8414 51.2708 13.6101V7.80208C51.2708 5.95538 52.7679 4.45833 54.6146 4.45833C56.4613 4.45833 57.9583 5.95538 57.9583 7.80208V13.375H64.6458V7.80208C64.6458 5.95538 66.1429 4.45833 67.9896 4.45833C69.8363 4.45833 71.3333 5.95538 71.3333 7.80208V13.6101C72.8476 13.8414 74.4259 14.3516 75.7351 15.6608C77.0442 16.9699 77.5545 18.5483 77.7857 20.0625H83.5937C85.4404 20.0625 86.9375 21.5595 86.9375 23.4062C86.9375 25.253 85.4404 26.75 83.5937 26.75H78.0208V33.4375H83.5937C85.4404 33.4375 86.9375 34.9345 86.9375 36.7812C86.9375 38.6279 85.4404 40.125 83.5937 40.125H77.7857C77.5545 41.6392 77.0442 43.2176 75.7351 44.5267C74.4261 45.8357 72.8474 46.3417 71.3333 46.573V52.3854C71.3333 54.2321 69.8363 55.7292 67.9896 55.7292C66.1429 55.7292 64.6458 54.2321 64.6458 52.3854ZM56.8437 20.0625C54.6475 20.0625 53.3375 20.0712 52.3985 20.1975C51.9683 20.2553 51.7509 20.323 51.654 20.3629C51.6324 20.3718 51.6189 20.3803 51.6104 20.3847L51.5974 20.389C51.5963 20.3907 51.5963 20.3958 51.593 20.4021C51.5886 20.4106 51.5802 20.4241 51.5712 20.4456C51.5313 20.5426 51.4637 20.76 51.4058 21.1901C51.2796 22.1291 51.2708 23.4392 51.2708 25.6354V34.5521C51.2708 36.7483 51.2796 38.0584 51.4058 38.9974C51.4637 39.4275 51.5313 39.6449 51.5712 39.7419C51.5802 39.7634 51.5886 39.7769 51.593 39.7854L51.5974 39.7985L51.6104 39.8028C51.6189 39.8072 51.6324 39.8157 51.654 39.8246C51.7509 39.8645 51.9683 39.9322 52.3985 39.99C53.3375 40.1163 54.6475 40.125 56.8437 40.125H65.7604C67.9567 40.125 69.2667 40.1163 70.2057 39.99C70.6359 39.9322 70.8533 39.8645 70.9502 39.8246C70.9718 39.8157 70.9853 39.8072 70.9937 39.8028L71.0068 39.7985L71.0111 39.7854C71.0156 39.7769 71.024 39.7634 71.0329 39.7419C71.0728 39.6449 71.1405 39.4275 71.1984 38.9974C71.3246 38.0584 71.3333 36.7483 71.3333 34.5521V25.6354C71.3333 23.4392 71.3246 22.1291 71.1984 21.1901C71.1405 20.76 71.0728 20.5426 71.0329 20.4456C71.024 20.4241 71.0156 20.4106 71.0111 20.4021L71.0068 20.389C71.0051 20.388 71.0001 20.388 70.9937 20.3847C70.9853 20.3803 70.9718 20.3718 70.9502 20.3629C70.8533 20.323 70.6359 20.2553 70.2057 20.1975C69.2667 20.0712 67.9567 20.0625 65.7604 20.0625H56.8437Z" fill="var(--fill-0, #F9A9FF)"/>
<path id="Vector (Stroke)_3" d="M56.0758 62.4167C56.6837 62.4167 57.2851 62.4136 57.7869 62.4428C58.1677 62.465 58.6479 62.5107 59.1627 62.6474L59.6852 62.8172L59.6939 62.8216C60.508 63.138 61.2425 63.6263 61.8447 64.2496L62.402 64.9158L62.8548 65.6559C63.1214 66.1688 63.3149 66.7168 63.4251 67.2843L63.5296 68.1507V68.155C63.5635 68.9131 63.4138 69.5834 63.2814 70.0751C63.1507 70.5605 62.9595 71.1302 62.7677 71.7078V71.7121C62.068 73.8154 61.5545 75.4329 60.6996 76.7843V76.7887C59.4002 78.84 57.5247 80.4349 55.3357 81.4125L55.0832 82.6664C54.5056 85.5828 54.1037 87.8129 53.063 89.6456C51.5611 92.2904 49.129 94.279 46.2405 95.2316L46.2449 95.2359C44.2475 95.8971 41.9687 95.8542 39.0088 95.8542C36.0473 95.8542 33.7776 95.8933 31.7858 95.2403H31.777C28.8874 94.286 26.4551 92.2887 24.9546 89.6412V89.6369C23.9171 87.8059 23.511 85.5828 22.9344 82.6707V82.6664L22.6819 81.4081C20.4952 80.4317 18.6217 78.837 17.3223 76.7887V76.7843C16.8946 76.1082 16.5521 75.3659 16.2295 74.5291L15.2542 71.7121C15.0614 71.1337 14.8717 70.5633 14.7405 70.0751C14.608 69.5824 14.4585 68.9121 14.4923 68.155V68.142C14.5492 66.9806 14.9444 65.859 15.6243 64.9158L16.1772 64.254C16.779 63.6313 17.5102 63.1422 18.3237 62.8259V62.8303C19.0379 62.551 19.7239 62.4774 20.2307 62.4471C20.7359 62.417 21.341 62.4167 21.9461 62.4167H56.0758ZM47.8732 82.4792H30.1487C30.0034 82.4792 29.8587 82.4747 29.7177 82.4748C30.2234 84.9698 30.4396 85.7559 30.7713 86.341L30.7757 86.3454C31.4579 87.5485 32.5622 88.4545 33.8756 88.888H33.8712C34.5982 89.1257 35.5569 89.1667 39.0088 89.1667C42.466 89.1667 43.4201 89.1267 44.142 88.888L44.1463 88.8837C45.4593 88.4508 46.5679 87.5476 47.2506 86.3454V86.341C47.5822 85.756 47.7944 84.9687 48.2999 82.4748C48.1599 82.4747 48.0175 82.4792 47.8732 82.4792ZM21.441 69.1085C21.4875 69.2497 21.5363 69.4118 21.5978 69.5961V69.6005C22.4109 72.0446 22.6581 72.7122 22.9692 73.2055C23.733 74.4095 24.9305 75.2774 26.313 75.6262H26.3173C26.8721 75.7667 27.5696 75.7917 30.1487 75.7917H47.8732C50.4454 75.7917 51.1488 75.767 51.7176 75.6262C53.0954 75.2749 54.2872 74.4111 55.0483 73.2098L55.2791 72.7832C55.5182 72.2733 55.8078 71.44 56.4198 69.6005L56.5765 69.1085C56.431 69.1081 56.2649 69.1042 56.0758 69.1042H21.9461C21.7554 69.1042 21.5871 69.108 21.441 69.1085Z" fill="var(--fill-0, #F9A9FF)"/>
</g>
</svg>
