<svg preserveAspectRatio="none" width="100%" height="100%" overflow="visible" style="display: block;" viewBox="0 0 100 100" fill="none" xmlns="http://www.w3.org/2000/svg">
<g id="ph:cube-transparent-thin">
<path id="Vector" d="M85.9062 37.1953C85.897 37.1513 85.8839 37.1082 85.8672 37.0664C85.8543 37.0106 85.8373 36.9557 85.8164 36.9023C85.7956 36.8523 85.7707 36.8039 85.7422 36.7578C85.7188 36.7148 85.6992 36.6719 85.6758 36.6328C85.6194 36.5478 85.5539 36.4692 85.4805 36.3984L63.6055 14.5234C63.5659 14.4844 63.5227 14.4491 63.4766 14.418C63.2011 14.1915 62.8565 14.0661 62.5 14.0625H15.625C15.2106 14.0625 14.8132 14.2271 14.5201 14.5201C14.2271 14.8132 14.0625 15.2106 14.0625 15.625V62.5C14.065 62.8561 14.189 63.2006 14.4141 63.4766C14.4452 63.5227 14.4805 63.5659 14.5195 63.6055L36.3945 85.4805C36.5397 85.6255 36.7121 85.7405 36.9018 85.819C37.0915 85.8974 37.2947 85.9377 37.5 85.9375H84.375C84.7894 85.9375 85.1868 85.7729 85.4799 85.4799C85.7729 85.1868 85.9375 84.7894 85.9375 84.375V37.5C85.9371 37.3977 85.9266 37.2956 85.9062 37.1953ZM64.0625 19.3984L80.6016 35.9375H64.0625V19.3984ZM35.9375 80.6016L19.3984 64.0625H35.9375V80.6016ZM35.9375 60.9375H17.1875V19.3984L35.9375 38.1484V60.9375ZM19.3984 17.1875H60.9375V35.9375H38.1484L19.3984 17.1875ZM60.9375 39.0625V60.9375H39.0625V39.0625H60.9375ZM39.0625 82.8125V64.0625H61.8516L80.6016 82.8125H39.0625ZM82.8125 80.6016L64.0625 61.8516V39.0625H82.8125V80.6016Z" fill="var(--fill-0, #F9A9FF)"/>
<path id="Vector (Stroke)" d="M13.0625 15.625C13.0625 14.9454 13.3329 14.294 13.8135 13.8135C14.294 13.3329 14.9454 13.0625 15.625 13.0625V14.0625C15.2106 14.0625 14.8135 14.2275 14.5205 14.5205L14.416 14.6348C14.1883 14.9128 14.0625 15.2625 14.0625 15.625V62.5C14.065 62.8561 14.189 63.2006 14.4141 63.4766C14.4452 63.5227 14.4805 63.5659 14.5195 63.6055L36.3945 85.4805C36.5397 85.6255 36.7118 85.7409 36.9014 85.8193C37.091 85.8978 37.2947 85.9377 37.5 85.9375H84.375C84.7894 85.9375 85.1865 85.7725 85.4795 85.4795C85.7725 85.1865 85.9375 84.7894 85.9375 84.375V37.5C85.9373 37.4488 85.9349 37.3976 85.9297 37.3467L85.9062 37.1953C85.897 37.1513 85.8839 37.1082 85.8672 37.0664C85.8543 37.0106 85.8373 36.9557 85.8164 36.9023C85.7956 36.8523 85.7707 36.8039 85.7422 36.7578L85.6758 36.6328C85.6194 36.5478 85.5539 36.4692 85.4805 36.3984L63.6055 14.5234C63.5659 14.4844 63.5227 14.4491 63.4766 14.418C63.2011 14.1915 62.8565 14.0661 62.5 14.0625H15.625V13.0625H62.5098L62.7285 13.0742C63.2257 13.1218 63.6986 13.315 64.0898 13.6299C64.1664 13.6856 64.2402 13.745 64.3076 13.8115L86.1875 35.6914H86.1865C86.2447 35.7484 86.3005 35.8076 86.3525 35.8701L86.5088 36.0801L86.5215 36.0986L86.5332 36.1182C86.5634 36.1686 86.5875 36.2146 86.5996 36.2383C86.6159 36.2701 86.6167 36.2731 86.6201 36.2793C86.6379 36.3099 86.6557 36.3406 86.6719 36.3721L86.7393 36.5186L86.7441 36.5273L86.7471 36.5371C86.7769 36.6132 86.8012 36.6916 86.8223 36.7705C86.8303 36.7937 86.8396 36.8164 86.8467 36.8398L86.8848 36.9893L86.8867 36.9961C86.9201 37.1606 86.9368 37.3282 86.9375 37.4961V84.375C86.9375 85.0546 86.6671 85.706 86.1865 86.1865C85.706 86.6671 85.0546 86.9375 84.375 86.9375H37.5V86.9365C37.1637 86.9367 36.8304 86.8717 36.5195 86.7432C36.2865 86.6468 36.0694 86.5166 35.875 86.3574L35.6875 86.1875L13.8076 64.3076C13.7463 64.2455 13.6908 64.1783 13.6387 64.1084L13.5088 63.9336C13.2225 63.5143 13.0661 63.0178 13.0625 62.5068V15.625ZM80.6016 82.8125H39.0625V64.0625H61.8516L80.6016 82.8125ZM40.0625 81.8125H78.1875L61.4375 65.0625H40.0625V81.8125ZM35.9375 64.0625V80.6016L19.3984 64.0625H35.9375ZM82.8125 39.0625V80.6016L64.0625 61.8516V39.0625H82.8125ZM34.9375 78.1875V65.0625H21.8125L34.9375 78.1875ZM65.0625 61.4375L81.8125 78.1875V40.0625H65.0625V61.4375ZM35.9375 38.1484V60.9375H17.1875V19.3984L35.9375 38.1484ZM60.9375 39.0625V60.9375H39.0625V39.0625H60.9375ZM40.0625 59.9375H59.9375V40.0625H40.0625V59.9375ZM18.1875 59.9375H34.9375V38.5625L18.1875 21.8125V59.9375ZM60.9375 17.1875V35.9375H38.1484L19.3984 17.1875H60.9375ZM80.6016 35.9375H64.0625V19.3984L80.6016 35.9375ZM65.0625 34.9375H78.1875L65.0625 21.8125V34.9375ZM38.5625 34.9375H59.9375V18.1875H21.8125L38.5625 34.9375Z" fill="var(--fill-0, #F9A9FF)"/>
</g>
</svg>
