<svg preserveAspectRatio="none" width="100%" height="100%" overflow="visible" style="display: block;" viewBox="0 0 62 58.5556" fill="none" xmlns="http://www.w3.org/2000/svg">
<g id="Group">
<path id="Vector (Stroke)" d="M3.47813 5.3525e-05C5.38044 5.3525e-05 6.92257 1.54218 6.92257 3.44449C6.92257 5.3468 5.38044 6.88893 3.47813 6.88893H3.44449C1.54218 6.88893 5.34058e-05 5.3468 5.34058e-05 3.44449C5.34058e-05 1.54218 1.54218 5.3525e-05 3.44449 5.3525e-05H3.47813Z" fill="var(--fill-0, #E2A4FF)"/>
<path id="Vector (Stroke)_2" d="M58.5556 5.3525e-05C60.4579 5.3525e-05 62 1.54218 62 3.44449C62 5.3468 60.4579 6.88893 58.5556 6.88893H17.2223C15.32 6.88893 13.7779 5.3468 13.7779 3.44449C13.7779 1.54218 15.32 5.3525e-05 17.2223 5.3525e-05H58.5556Z" fill="var(--fill-0, #E2A4FF)"/>
<path id="Vector (Stroke)_3" d="M3.47813 17.2222C5.38044 17.2222 6.92257 18.7643 6.92257 20.6666C6.92257 22.569 5.38044 24.1111 3.47813 24.1111H3.44449C1.54218 24.1111 5.34058e-05 22.569 5.34058e-05 20.6666C5.34058e-05 18.7643 1.54218 17.2222 3.44449 17.2222H3.47813Z" fill="var(--fill-0, #E2A4FF)"/>
<path id="Vector (Stroke)_4" d="M58.5556 17.2222C60.4579 17.2222 62 18.7643 62 20.6666C62 22.569 60.4579 24.1111 58.5556 24.1111H17.2223C15.32 24.1111 13.7779 22.569 13.7779 20.6666C13.7779 18.7643 15.32 17.2222 17.2223 17.2222H58.5556Z" fill="var(--fill-0, #E2A4FF)"/>
<path id="Vector (Stroke)_5" d="M3.47813 34.4445C5.38044 34.4445 6.92257 35.9867 6.92257 37.889C6.92257 39.7913 5.38044 41.3334 3.47813 41.3334H3.44449C1.54218 41.3334 5.34058e-05 39.7913 5.34058e-05 37.889C5.34058e-05 35.9867 1.54218 34.4445 3.44449 34.4445H3.47813Z" fill="var(--fill-0, #E2A4FF)"/>
<path id="Vector (Stroke)_6" d="M58.5556 34.4445C60.4579 34.4445 62 35.9867 62 37.889C62 39.7913 60.4579 41.3334 58.5556 41.3334H17.2223C15.32 41.3334 13.7779 39.7913 13.7779 37.889C13.7779 35.9867 15.32 34.4445 17.2223 34.4445H58.5556Z" fill="var(--fill-0, #E2A4FF)"/>
<path id="Vector (Stroke)_7" d="M3.47813 51.6667C5.38044 51.6667 6.92257 53.2088 6.92257 55.1111C6.92257 57.0135 5.38044 58.5556 3.47813 58.5556H3.44449C1.54218 58.5556 5.34058e-05 57.0135 5.34058e-05 55.1111C5.34058e-05 53.2088 1.54218 51.6667 3.44449 51.6667H3.47813Z" fill="var(--fill-0, #E2A4FF)"/>
<path id="Vector (Stroke)_8" d="M58.5556 51.6667C60.4579 51.6667 62 53.2088 62 55.1111C62 57.0135 60.4579 58.5556 58.5556 58.5556H17.2223C15.32 58.5556 13.7779 57.0135 13.7779 55.1111C13.7779 53.2088 15.32 51.6667 17.2223 51.6667H58.5556Z" fill="var(--fill-0, #E2A4FF)"/>
</g>
</svg>
