<svg preserveAspectRatio="none" width="100%" height="100%" overflow="visible" style="display: block;" viewBox="0 0 80 80" fill="none" xmlns="http://www.w3.org/2000/svg">
<path id="Vector" d="M79.941 6.05875C79.8462 4.49852 79.1836 3.02693 78.0782 1.92164C76.9728 0.816349 75.501 0.153792 73.9406 0.0589756C68.9083 -0.241013 56.0475 0.218969 45.3749 10.8866L43.4748 12.8105H20.1413C19.2975 12.8055 18.4612 12.9685 17.681 13.2898C16.9009 13.6112 16.1924 14.0846 15.597 14.6824L1.87617 28.4099C1.03471 29.2507 0.444253 30.3094 0.171062 31.4671C-0.10213 32.6248 -0.0472416 33.8357 0.329566 34.9639C0.706374 36.0921 1.39019 37.093 2.30427 37.8543C3.21835 38.6155 4.32651 39.107 5.5044 39.2735L20.8934 41.4214L38.5785 59.1048L40.7266 74.5002C40.8918 75.678 41.3832 76.7862 42.1452 77.6994C42.9072 78.6126 43.9096 79.2945 45.0389 79.668C45.6966 79.8878 46.3855 79.9999 47.079 80C47.9187 80.0018 48.7505 79.8373 49.5263 79.516C50.3022 79.1947 51.0067 78.723 51.5993 78.1281L65.3281 64.4086C65.926 63.8132 66.3994 63.1049 66.7208 62.3248C67.0422 61.5447 67.2052 60.7084 67.2002 59.8647V36.5336L69.1083 34.6257C79.781 23.9541 80.241 11.0946 79.941 6.05875ZM20.1413 19.2103H37.0744L21.2614 35.0177L6.39645 32.9457L20.1413 19.2103ZM49.9072 15.4304C52.9823 12.3367 56.6822 9.93463 60.7597 8.38474C64.8373 6.83484 69.1987 6.17277 73.5526 6.44274C73.8331 10.7985 73.1778 15.1638 71.6309 19.2453C70.0839 23.3268 67.6812 27.03 64.5841 30.1059L41.5986 53.081L26.9257 38.4095L49.9072 15.4304ZM60.7998 59.8647L47.067 73.6082L44.9908 58.7408L60.7998 42.9334V59.8647ZM31.134 63.6646C29.3339 67.6085 23.3135 76.8081 6.39645 76.8081C5.54771 76.8081 4.73373 76.471 4.13357 75.8709C3.53342 75.2708 3.19625 74.4569 3.19625 73.6082C3.19625 56.6929 12.3968 50.6731 16.3411 48.8691C16.7235 48.6948 17.1365 48.5974 17.5566 48.5826C17.9767 48.5678 18.3955 48.6359 18.7893 48.783C19.183 48.9301 19.5439 49.1533 19.8514 49.4398C20.1589 49.7264 20.4069 50.0707 20.5813 50.4531C20.7557 50.8355 20.8531 51.2485 20.8679 51.6685C20.8827 52.0885 20.8146 52.5074 20.6675 52.9011C20.5204 53.2948 20.2972 53.6556 20.0106 53.9631C19.724 54.2705 19.3797 54.5185 18.9972 54.6929C16.4251 55.8649 10.7487 59.6367 9.74866 70.2564C20.3693 69.2564 24.1496 63.5806 25.3136 61.0087C25.488 60.6263 25.7361 60.282 26.0435 59.9954C26.351 59.7089 26.7119 59.4857 27.1057 59.3386C27.4994 59.1915 27.9183 59.1235 28.3384 59.1382C28.7584 59.153 29.1715 59.2504 29.5539 59.4248C29.9363 59.5991 30.2807 59.8471 30.5672 60.1546C30.8538 60.462 31.077 60.8229 31.2241 61.2166C31.3712 61.6103 31.4393 62.0292 31.4245 62.4492C31.4098 62.8692 31.3124 63.2822 31.138 63.6646H31.134Z" fill="var(--fill-0, #E2A4FF)"/>
</svg>
