<svg preserveAspectRatio="none" width="100%" height="100%" overflow="visible" style="display: block;" viewBox="0 0 105.78 105.78" fill="none" xmlns="http://www.w3.org/2000/svg">
<g id="material-symbols:call-outline-sharp">
<path id="Vector" d="M87.9296 92.5575C78.7473 92.5575 69.6576 90.5741 60.6604 86.6074C51.6632 82.6406 43.4903 76.9843 36.1415 69.6385C28.7927 62.2927 23.1364 54.1388 19.1726 45.1769C15.2088 36.215 13.2254 27.1061 13.2225 17.8504V13.2225H39.2267L43.3037 35.3702L30.7423 48.0417C32.3584 50.9066 34.1581 53.6246 36.1415 56.1956C38.1249 58.7667 40.2552 61.1541 42.5324 63.3578C44.6627 65.4881 46.9957 67.5273 49.5315 69.4754C52.0673 71.4235 54.8029 73.2409 57.7382 74.9275L70.52 62.1457L92.5575 66.6634V92.5575H87.9296ZM26.5552 39.6675L33.8276 32.3951L31.9544 22.0375H22.1477C22.515 25.3431 23.0659 28.4475 23.8005 31.3505C24.5351 34.2536 25.4533 37.0259 26.5552 39.6675ZM66.0023 79.1146C68.9406 80.3634 71.8981 81.3551 74.8746 82.0897C77.8511 82.8243 80.8071 83.3017 83.7425 83.5221V73.8256L73.3849 71.7321L66.0023 79.1146Z" fill="var(--fill-0, #E2A4FF)"/>
</g>
</svg>
