<svg preserveAspectRatio="xMidYMid meet" width="100%" height="100%" overflow="visible" style="display: block;" viewBox="0 0 88.15 96.1452" fill="none" xmlns="http://www.w3.org/2000/svg">
<g id="Group">
<g id="Vector">
</g>
<path id="Vector_2" d="M44.075 0C68.4176 0 88.15 19.7324 88.15 44.075C88.15 68.4176 68.4176 88.15 44.075 88.15C19.7324 88.15 0 68.4176 0 44.075C0 19.7324 19.7324 0 44.075 0ZM44.075 8.815C34.7235 8.815 25.7549 12.5299 19.1424 19.1424C12.5299 25.7549 8.815 34.7235 8.815 44.075C8.815 53.4265 12.5299 62.3951 19.1424 69.0076C25.7549 75.6201 34.7235 79.335 44.075 79.335C53.4265 79.335 62.3951 75.6201 69.0076 69.0076C75.6201 62.3951 79.335 53.4265 79.335 44.075C79.335 34.7235 75.6201 25.7549 69.0076 19.1424C62.3951 12.5299 53.4265 8.815 44.075 8.815ZM44.075 17.63C45.1545 17.6301 46.1965 18.0265 47.0032 18.7438C47.81 19.4612 48.3253 20.4497 48.4517 21.5218L48.4825 22.0375V42.2503L60.4136 54.1814C61.2041 54.9746 61.663 56.0389 61.6972 57.1582C61.7314 58.2774 61.3382 59.3678 60.5976 60.2077C59.857 61.0476 58.8245 61.5741 57.7097 61.6803C56.595 61.7865 55.4816 61.4644 54.5957 60.7794L54.1814 60.4136L40.9589 47.1911C40.2739 46.5055 39.8339 45.6132 39.7072 44.6524L39.6675 44.075V22.0375C39.6675 20.8686 40.1319 19.7475 40.9584 18.9209C41.785 18.0944 42.9061 17.63 44.075 17.63Z" fill="var(--fill-0, #E2A4FF)"/>
</g>
</svg>
