<svg preserveAspectRatio="xMidYMid meet" width="100%" height="100%" overflow="visible" style="display: block;" viewBox="0 0 79.035 95.7816" fill="none" xmlns="http://www.w3.org/2000/svg">
<g id="Group">
<g id="Vector">
</g>
<path id="Vector_2" fill-rule="evenodd" clip-rule="evenodd" d="M39.5175 0C49.9982 0 60.0496 4.16344 67.4606 11.5744C74.8716 18.9854 79.035 29.0368 79.035 39.5175C79.035 53.0149 71.676 64.0623 63.9217 71.9877C60.0476 75.9046 55.8203 79.4558 51.2937 82.596L49.4232 83.8693L48.545 84.4533L46.8897 85.5071L45.4144 86.4072L43.5878 87.4698C42.348 88.1775 40.9451 88.5497 39.5175 88.5497C38.0899 88.5497 36.687 88.1775 35.4472 87.4698L33.6206 86.4072L31.3374 85.0021L30.4943 84.4533L28.6941 83.2546C23.8107 79.9506 19.2622 76.177 15.1132 71.9877C7.35904 64.0579 0 53.0149 0 39.5175C0 29.0368 4.16344 18.9854 11.5744 11.5744C18.9854 4.16344 29.0368 0 39.5175 0ZM39.5175 8.78167C31.3658 8.78167 23.5481 12.0199 17.784 17.784C12.0199 23.5481 8.78167 31.3659 8.78167 39.5175C8.78167 49.713 14.3668 58.6615 21.3877 65.8449C24.4066 68.9009 27.6695 71.7057 31.1442 74.2314L33.1552 75.6628C33.805 76.1166 34.43 76.5381 35.0301 76.9274L36.7425 78.0251L38.2485 78.9428L39.5175 79.6848L41.5153 78.5037L43.1268 77.4938C43.9844 76.9494 44.9021 76.339 45.8798 75.6628L47.8908 74.2314C51.3655 71.7057 54.6284 68.9009 57.6472 65.8449C64.6682 58.6659 70.2533 49.713 70.2533 39.5175C70.2533 31.3659 67.0151 23.5481 61.251 17.784C55.4869 12.0199 47.6691 8.78167 39.5175 8.78167ZM39.5175 21.9542C44.1756 21.9542 48.6429 23.8046 51.9366 27.0983C55.2304 30.3921 57.0808 34.8594 57.0808 39.5175C57.0808 44.1756 55.2304 48.6429 51.9366 51.9367C48.6429 55.2304 44.1756 57.0808 39.5175 57.0808C34.8594 57.0808 30.3921 55.2304 27.0983 51.9367C23.8046 48.6429 21.9542 44.1756 21.9542 39.5175C21.9542 34.8594 23.8046 30.3921 27.0983 27.0983C30.3921 23.8046 34.8594 21.9542 39.5175 21.9542ZM39.5175 30.7358C37.1885 30.7358 34.9548 31.661 33.3079 33.3079C31.661 34.9548 30.7358 37.1885 30.7358 39.5175C30.7358 41.8465 31.661 44.0802 33.3079 45.7271C34.9548 47.374 37.1885 48.2992 39.5175 48.2992C41.8465 48.2992 44.0802 47.374 45.7271 45.7271C47.374 44.0802 48.2992 41.8465 48.2992 39.5175C48.2992 37.1885 47.374 34.9548 45.7271 33.3079C44.0802 31.661 41.8465 30.7358 39.5175 30.7358Z" fill="var(--fill-0, #E2A4FF)"/>
</g>
</svg>
