<svg preserveAspectRatio="none" width="100%" height="100%" overflow="visible" style="display: block;" viewBox="0 0 80 79.9985" fill="none" xmlns="http://www.w3.org/2000/svg">
<g id="Group">
<path id="Vector (Stroke)" d="M39.0288 0.170342C39.7601 -0.0940008 40.5735 -0.0505904 41.2776 0.301477L78.4196 18.8725C79.3875 19.3564 79.9988 20.346 79.9988 21.4282V58.5702C79.9988 59.6523 79.3875 60.6419 78.4196 61.1259L41.2776 79.6969C40.4733 80.0991 39.5262 80.0991 38.7219 79.6969L1.5799 61.1259C0.61197 60.6419 0.000698303 59.6524 0.000697534 58.5702V21.4282C0.000697534 20.346 0.61197 19.3564 1.5799 18.8725L38.7219 0.301477L39.0288 0.170342ZM5.71485 23.1943V56.804L39.9997 73.9465L74.2846 56.804V23.1943L39.9997 6.0519L5.71485 23.1943Z" fill="var(--fill-0, #E2A4FF)"/>
<path id="Vector (Stroke)_2" d="M37.1429 77.1413V41.7655L1.5801 23.9841C0.168763 23.2785 -0.403442 21.5618 0.302225 20.1505C1.00789 18.7392 2.7245 18.167 4.13584 18.8726L21.4289 27.5192L57.293 9.58714C58.7044 8.88147 60.421 9.45368 61.1267 10.865C61.8323 12.2763 61.2601 13.993 59.8488 14.6986L27.8183 30.7139L39.9999 36.8047L75.864 18.8726C77.2754 18.167 78.992 18.7392 79.6976 20.1505C80.4033 21.5618 79.8311 23.2785 78.4198 23.9841L42.857 41.7655V77.1413C42.857 78.7192 41.5779 79.9984 39.9999 79.9984C38.422 79.9984 37.1429 78.7192 37.1429 77.1413Z" fill="var(--fill-0, #E2A4FF)"/>
</g>
</svg>
