<svg preserveAspectRatio="none" width="100%" height="100%" overflow="visible" style="display: block;" viewBox="0 0 82 82" fill="none" xmlns="http://www.w3.org/2000/svg">
<g id="Group">
<path id="Vector (Stroke)" d="M33.6746 33.6656C34.7444 32.6013 36.475 32.6036 37.5397 33.6727C38.6043 34.7429 38.5991 36.4732 37.529 37.5378C36.6056 38.4564 36.0857 39.7054 36.0805 41.0078C36.0827 42.3096 36.6012 43.5572 37.5219 44.4778C38.4434 45.3993 39.6924 45.9144 40.9955 45.9157C42.2966 45.9095 43.5442 45.3933 44.4619 44.4707C45.5266 43.4006 47.2568 43.3954 48.327 44.46C49.3961 45.5248 49.3984 47.2553 48.3341 48.3251C46.3942 50.2746 43.76 51.3757 41.0097 51.3859H40.999C38.2448 51.3855 35.6043 50.2904 33.6568 48.3429C31.7093 46.3954 30.6142 43.7549 30.6139 41.0007V40.99L30.6672 39.965C30.9112 37.5916 31.9686 35.3632 33.6746 33.6656Z" fill="var(--fill-0, #E2A4FF)"/>
<path id="Vector (Stroke)_2" d="M40.9995 15.3064C42.5091 15.3064 43.7329 16.5301 43.7329 18.0397C43.7329 19.5493 42.5091 20.773 40.9995 20.773C36.9994 20.7731 33.0898 21.9602 29.7638 24.1825C26.438 26.4047 23.8458 29.5627 22.3148 33.258C20.7839 36.9539 20.3812 41.0222 21.1617 44.9457C21.9421 48.8693 23.8708 52.4737 26.6995 55.3024C29.5276 58.1302 33.1302 60.0561 37.0526 60.8367C40.976 61.6171 45.0446 61.2179 48.7404 59.6871C52.4362 58.1563 55.5969 55.5642 57.8194 52.2381C60.0419 48.9119 61.2253 44.9992 61.2253 40.9988C61.2257 39.49 62.45 38.2663 63.9587 38.2655C65.468 38.2655 66.6916 39.4896 66.692 40.9988C66.692 46.0803 65.1873 51.0488 62.3642 55.274C59.5411 59.4991 55.5278 62.7927 50.8331 64.7373C46.1385 66.6819 40.9722 67.1912 35.9885 66.2001C31.0045 65.2087 26.4241 62.7608 22.8308 59.1675C19.2384 55.5747 16.7933 50.9965 15.8018 46.0134C14.8105 41.0298 15.3202 35.8634 17.2646 31.1688C19.209 26.4746 22.5 22.4608 26.7244 19.6377C30.9494 16.8146 35.9182 15.3065 40.9995 15.3064Z" fill="var(--fill-0, #E2A4FF)"/>
<path id="Vector (Stroke)_3" d="M41.0003 0C42.5099 0 43.7336 1.22375 43.7336 2.73331C43.7336 4.24288 42.5099 5.46663 41.0003 5.46663C33.9725 5.46663 27.1019 7.552 21.2585 11.4564C15.4159 15.3606 10.8614 20.9087 8.17208 27.4008C5.48266 33.8936 4.77951 41.0399 6.15056 47.9326C7.52173 54.825 10.9046 61.1571 15.8738 66.1262C20.8429 71.0954 27.175 74.4783 34.0674 75.8494C40.9601 77.2205 48.1064 76.5173 54.5992 73.8279C61.0913 71.1386 66.6394 66.5841 70.5436 60.7415C74.448 54.8981 76.5334 48.0275 76.5334 40.9997C76.5334 39.4901 77.7571 38.2664 79.2667 38.2664C80.7762 38.2664 82 39.4901 82 40.9997C82 49.1082 79.5966 57.0352 75.092 63.7773C70.5872 70.5192 64.183 75.7749 56.6919 78.8781C49.2008 81.9811 40.9559 82.7944 33.0032 81.2128C25.0501 79.6309 17.7426 75.7252 12.0087 69.9913C6.27477 64.2574 2.36913 56.9499 0.787149 48.9968C-0.794369 41.0441 0.0189113 32.7992 3.12185 25.3081C6.22511 17.817 11.4808 11.4128 18.2227 6.90802C24.9648 2.40343 32.8918 2.89284e-07 41.0003 0ZM53.2682 24.8703C54.3359 23.8045 56.0665 23.8067 57.1333 24.8739C58.1992 25.9415 58.2001 27.6721 57.1333 28.7389L46.7588 39.1063C45.6912 40.1731 43.9608 40.1734 42.8937 39.1063C41.8268 38.039 41.8272 36.3085 42.8937 35.2412L53.2682 24.8703Z" fill="var(--fill-0, #E2A4FF)"/>
<path id="Vector (Stroke)_4" d="M65.1432 1.42271C65.6607 1.43877 66.1702 1.57188 66.6344 1.81064C67.0988 2.04951 67.5019 2.38819 67.816 2.80004L68.1007 3.23424L68.3143 3.70403C68.4944 4.18943 68.5669 4.71086 68.5207 5.23084C68.5166 5.27717 68.5094 5.32358 68.5029 5.36964L67.1718 14.8259L76.6317 13.4948C76.6693 13.4897 76.7074 13.4842 76.7456 13.4806L76.8025 13.477C76.8382 13.4743 76.8738 13.4713 76.9093 13.4699H77.2652C77.783 13.4981 78.2901 13.6432 78.7493 13.8935C79.2089 14.1442 79.6052 14.4943 79.9095 14.9149L80.1835 15.3562L80.3864 15.8367C80.5536 16.3274 80.6107 16.8513 80.5501 17.3706C80.4693 18.0635 80.1827 18.7171 79.728 19.2462C79.6849 19.2963 79.6394 19.3452 79.5928 19.3921L70.9906 28.0405L70.9764 28.0512C69.7616 29.2572 68.2677 30.1458 66.6273 30.635C64.9923 31.1225 63.2631 31.1955 61.5913 30.8557V30.8592L54.6619 29.4854C53.5782 29.2698 52.732 28.423 52.5159 27.3394L51.1421 20.4207L51.1385 20.4242C50.7953 18.7476 50.8736 17.0104 51.3628 15.3704C51.8521 13.7307 52.7374 12.2357 53.943 11.0213L53.9573 11.0107L62.6092 2.40144L62.7551 2.26619C63.283 1.81308 63.9362 1.52891 64.6272 1.44762L65.1432 1.42271ZM57.8117 14.8864C57.2469 15.4592 56.8318 16.162 56.6016 16.9328C56.3699 17.7098 56.3321 18.5337 56.4948 19.328L56.4984 19.3423L57.5163 24.4779L62.6555 25.4958L62.6733 25.4994C63.4671 25.6618 64.2884 25.6276 65.0649 25.3961C65.842 25.1644 66.5501 24.7431 67.1256 24.1718L71.5423 19.7302L64.3424 20.7481C63.4927 20.8677 62.636 20.5788 62.0291 19.9722C61.4221 19.3653 61.1336 18.5088 61.2532 17.6589L62.264 10.4519L57.8117 14.8864Z" fill="var(--fill-0, #E2A4FF)"/>
</g>
</svg>
