<svg preserveAspectRatio="none" width="100%" height="100%" overflow="visible" style="display: block;" viewBox="0 0 33.5274 33.5274" fill="none" xmlns="http://www.w3.org/2000/svg">
<g id="logo-86" clip-path="url(#clip0_2003_967)">
<path id="Vector" fill-rule="evenodd" clip-rule="evenodd" d="M21.4204 9.79443C20.042 8.87343 18.4214 8.38184 16.7637 8.38184V0C20.0792 0 23.3203 0.983173 26.0771 2.82519C28.8339 4.6672 30.9825 7.28534 32.2513 10.3485C33.5201 13.4116 33.8521 16.7823 33.2052 20.0341C32.5584 23.2859 30.9618 26.273 28.6174 28.6174C26.273 30.9618 23.2859 32.5584 20.0341 33.2052C16.7823 33.8521 13.4116 33.5201 10.3485 32.2513C7.28534 30.9825 4.6672 28.8339 2.82519 26.0771C0.983173 23.3203 0 20.0792 0 16.7637H8.38184C8.38184 18.4214 8.87343 20.042 9.79443 21.4204C10.7154 22.7988 12.0245 23.8731 13.5561 24.5075C15.0876 25.1419 16.773 25.3079 18.3989 24.9844C20.0248 24.661 21.5183 23.8628 22.6906 22.6906C23.8628 21.5183 24.661 20.0248 24.9844 18.3989C25.3079 16.773 25.1419 15.0876 24.5075 13.5561C23.8731 12.0245 22.7988 10.7154 21.4204 9.79443Z" fill="var(--fill-0, #BB7CE4)"/>
<path id="Vector_2" fill-rule="evenodd" clip-rule="evenodd" d="M8.38184 3.63039e-06C8.38184 1.10072 8.16504 2.19066 7.74381 3.20759C7.32258 4.22453 6.70518 5.14853 5.92685 5.92686C5.14853 6.70519 4.22453 7.32259 3.20759 7.74382C2.19066 8.16504 1.10072 8.38184 3.66379e-07 8.38184L0 16.7637C2.20144 16.7637 4.38132 16.3301 6.41519 15.4876C8.44906 14.6452 10.2971 13.4104 11.8537 11.8537C13.4104 10.2971 14.6452 8.44906 15.4876 6.41519C16.3301 4.38132 16.7637 2.20143 16.7637 0L8.38184 3.63039e-06Z" fill="var(--fill-0, #BB7CE4)"/>
</g>
<defs>
<clipPath id="clip0_2003_967">
<rect width="33.5274" height="33.5274" fill="white"/>
</clipPath>
</defs>
</svg>
