<svg preserveAspectRatio="none" width="100%" height="100%" overflow="visible" style="display: block;" viewBox="0 0 994 118" fill="none" xmlns="http://www.w3.org/2000/svg">
<path id="Ellipse 6" d="M497 0.414062C634.231 0.414062 758.464 7.017 848.383 17.6914C893.345 23.0289 929.712 29.3826 954.831 36.4326C967.394 39.9585 977.119 43.6529 983.695 47.4678C986.983 49.375 989.464 51.3016 991.119 53.2363C992.772 55.1685 993.586 57.0894 993.586 59C993.586 60.9106 992.772 62.8315 991.119 64.7637C989.464 66.6984 986.983 68.625 983.695 70.5322C977.119 74.3471 967.394 78.0415 954.831 81.5674C929.712 88.6174 893.345 94.9711 848.383 100.309C758.464 110.983 634.231 117.586 497 117.586C359.769 117.586 235.536 110.983 145.617 100.309C100.655 94.9711 64.2878 88.6174 39.1689 81.5674C26.6063 78.0415 16.8805 74.3471 10.3047 70.5322C7.01716 68.625 4.53611 66.6984 2.88086 64.7637C1.22796 62.8315 0.414062 60.9106 0.414062 59C0.414062 57.0894 1.22796 55.1685 2.88086 53.2363C4.53611 51.3016 7.01716 49.375 10.3047 47.4678C16.8805 43.6529 26.6063 39.9585 39.1689 36.4326C64.2878 29.3826 100.655 23.0289 145.617 17.6914C235.536 7.017 359.769 0.414062 497 0.414062Z" stroke="url(#paint0_linear_2001_978)" stroke-width="0.827921"/>
<defs>
<linearGradient id="paint0_linear_2001_978" x1="0" y1="59" x2="994" y2="59" gradientUnits="userSpaceOnUse">
<stop stop-color="#AB78E9"/>
<stop offset="0.264423" stop-color="#070015"/>
<stop offset="0.692308" stop-color="#070015"/>
<stop offset="1" stop-color="#AB78E9"/>
</linearGradient>
</defs>
</svg>
