<svg preserveAspectRatio="none" width="100%" height="100%" overflow="visible" style="display: block;" viewBox="0 0 1173 148" fill="none" xmlns="http://www.w3.org/2000/svg">
<path id="Ellipse 5" d="M586.5 0.414062C748.446 0.414062 895.052 8.69639 1001.17 22.085C1054.23 28.7796 1097.15 36.7492 1126.79 45.5928C1141.62 50.0154 1153.1 54.6494 1160.87 59.4385C1168.66 64.2444 1172.59 69.125 1172.59 74C1172.59 78.875 1168.66 83.7556 1160.87 88.5615C1153.1 93.3506 1141.62 97.9846 1126.79 102.407C1097.15 111.251 1054.23 119.22 1001.17 125.915C895.052 139.304 748.446 147.586 586.5 147.586C424.554 147.586 277.948 139.304 171.834 125.915C118.774 119.22 75.8542 111.251 46.208 102.407C31.3821 97.9846 19.8999 93.3506 12.1328 88.5615C4.33842 83.7556 0.414062 78.875 0.414062 74C0.414062 69.125 4.33842 64.2444 12.1328 59.4385C19.8999 54.6494 31.3821 50.0154 46.208 45.5928C75.8542 36.7492 118.774 28.7796 171.834 22.085C277.948 8.69639 424.554 0.414062 586.5 0.414062Z" stroke="url(#paint0_linear_2001_914)" stroke-width="0.827921"/>
<defs>
<linearGradient id="paint0_linear_2001_914" x1="0" y1="74" x2="1173" y2="74" gradientUnits="userSpaceOnUse">
<stop stop-color="#AB78E9"/>
<stop offset="0.264423" stop-color="#070015"/>
<stop offset="0.692308" stop-color="#070015"/>
<stop offset="1" stop-color="#AB78E9"/>
</linearGradient>
</defs>
</svg>
