<svg preserveAspectRatio="none" width="100%" height="100%" overflow="visible" style="display: block;" viewBox="0 0 28.2561 25.4305" fill="none" xmlns="http://www.w3.org/2000/svg">
<path id="Hero Title" d="M16.8242 25.4305V20.6955C16.9321 17.8936 17.0759 15.2335 17.2556 12.7152C17.4713 10.197 18.0645 7.87387 19.0351 5.7458C20.0057 3.58226 21.6954 1.66699 24.104 0L27.0698 3.35172C26.3867 3.95467 25.506 5.19605 24.4275 7.07584C23.349 8.92018 22.7738 11.4739 22.7019 14.7369L28.2561 15.4285V25.4305H16.8242ZM0 25.4305V20.6955C0 17.929 0.125822 15.2867 0.377467 12.7684C0.665061 10.2502 1.33012 7.90934 2.37265 5.7458C3.45113 3.58226 5.19466 1.66699 7.60326 0L10.5691 3.35172C9.88604 3.95467 9.00528 5.17831 7.9268 7.02264C6.84833 8.86697 6.27314 11.4207 6.20124 14.6837L11.4319 15.4285V25.4305H0Z" fill="var(--fill-0, #AB78E9)"/>
</svg>
