<svg preserveAspectRatio="none" width="100%" height="100%" overflow="visible" style="display: block;" viewBox="0 0 16 16" fill="none" xmlns="http://www.w3.org/2000/svg">
<g id="up-right-arrow (1) 1" clip-path="url(#clip0_2001_931)">
<path id="Vector" d="M16 0.681406V11.0315C16 11.4078 15.6949 11.7129 15.3186 11.7129C14.9423 11.7129 14.6372 11.4078 14.6372 11.0315V2.32659L1.16328 15.8005C1.03019 15.9335 0.855844 16 0.681437 16C0.507031 16 0.332687 15.9335 0.199594 15.8005C-0.0665312 15.5343 -0.0665312 15.1029 0.199594 14.8368L13.6735 1.36281H4.96853C4.59222 1.36281 4.28713 1.05772 4.28713 0.681406C4.28713 0.305094 4.59222 2.40019e-09 4.96853 2.40019e-09H15.3186C15.6949 -3.12476e-05 16 0.305094 16 0.681406Z" fill="var(--fill-0, white)"/>
</g>
<defs>
<clipPath id="clip0_2001_931">
<rect width="16" height="16" fill="white"/>
</clipPath>
</defs>
</svg>
