<svg preserveAspectRatio="none" width="100%" height="100%" overflow="visible" style="display: block;" viewBox="0 0 82 72" fill="none" xmlns="http://www.w3.org/2000/svg">
<path id="Vector" d="M9.71935 0H72.2806C73.5468 0 74.6088 0.432 75.4668 1.296C76.3248 2.16 76.7523 3.228 76.7493 4.5C76.7463 5.772 76.3173 6.8415 75.4623 7.7085C74.6073 8.5755 73.5468 9.006 72.2806 9H9.71935C8.45322 9 7.39266 8.568 6.53766 7.704C5.68265 6.84 5.25366 5.772 5.25068 4.5C5.2477 3.228 5.67669 2.16 6.53766 1.296C7.39862 0.432 8.45918 0 9.71935 0ZM9.71935 72C8.45322 72 7.39266 71.568 6.53766 70.704C5.68265 69.84 5.25366 68.772 5.25068 67.5V45H4.46867C3.05359 45 1.89918 44.4555 1.00545 43.3665C0.111717 42.2775 -0.186194 41.022 0.111717 39.6L4.58038 17.1C4.80381 16.05 5.32516 15.1875 6.14441 14.5125C6.96367 13.8375 7.89464 13.5 8.93733 13.5H73.0627C74.1053 13.5 75.0363 13.8375 75.8556 14.5125C76.6748 15.1875 77.1962 16.05 77.4196 17.1L81.8883 39.6C82.1862 41.025 81.8883 42.2805 80.9945 43.3665C80.1008 44.4525 78.9464 44.997 77.5313 45H76.7493V67.5C76.7493 68.775 76.3203 69.8445 75.4623 70.7085C74.6044 71.5725 73.5438 72.003 72.2806 72C71.0175 71.997 69.9569 71.565 69.099 70.704C68.241 69.843 67.812 68.775 67.812 67.5V45H49.9373V67.5C49.9373 68.775 49.5083 69.8445 48.6504 70.7085C47.7924 71.5725 46.7318 72.003 45.4687 72H9.71935ZM14.188 63H41V45H14.188V63ZM9.94278 36H72.0572L69.376 22.5H12.624L9.94278 36Z" fill="var(--fill-0, #E2A4FF)"/>
</svg>
