<svg preserveAspectRatio="none" width="100%" height="100%" overflow="visible" style="display: block;" viewBox="0 0 80 80" fill="none" xmlns="http://www.w3.org/2000/svg">
<path id="Vector" d="M73.3333 6.66667V73.3333H6.66667V6.66667H73.3333ZM6.66667 0C4.89856 0 3.20286 0.702379 1.95262 1.95262C0.702379 3.20286 0 4.89856 0 6.66667L0 73.3333C0 75.1014 0.702379 76.7971 1.95262 78.0474C3.20286 79.2976 4.89856 80 6.66667 80H73.3333C75.1014 80 76.7971 79.2976 78.0474 78.0474C79.2976 76.7971 80 75.1014 80 73.3333V6.66667C80 4.89856 79.2976 3.20286 78.0474 1.95262C76.7971 0.702379 75.1014 0 73.3333 0L6.66667 0ZM51.0533 25H64.8533C65.8533 25 66.6667 25.8133 66.6667 26.82V40.6133C66.6652 40.9726 66.5575 41.3235 66.357 41.6217C66.1565 41.9199 65.8722 42.152 65.54 42.2889C65.2078 42.4258 64.8425 42.4613 64.4901 42.3909C64.1378 42.3205 63.8141 42.1474 63.56 41.8933L59.0267 37.36L45.6933 50.6933C45.3837 51.0038 45.0159 51.25 44.6109 51.4181C44.2059 51.5861 43.7718 51.6726 43.3333 51.6726C42.8949 51.6726 42.4607 51.5861 42.0558 51.4181C41.6508 51.25 41.283 51.0038 40.9733 50.6933L33.3333 43.0467L19.0267 57.36C18.4008 57.9859 17.5518 58.3375 16.6667 58.3375C15.7815 58.3375 14.9326 57.9859 14.3067 57.36C13.6808 56.7341 13.3291 55.8852 13.3291 55C13.3291 54.1148 13.6808 53.2659 14.3067 52.64L30.9733 35.9733C31.283 35.6629 31.6508 35.4166 32.0558 35.2486C32.4607 35.0805 32.8949 34.994 33.3333 34.994C33.7718 34.994 34.2059 35.0805 34.6109 35.2486C35.0159 35.4166 35.3837 35.6629 35.6933 35.9733L43.3333 43.62L54.3067 32.64L49.7733 28.1067C49.5193 27.8525 49.3462 27.5289 49.2758 27.1765C49.2054 26.8242 49.2409 26.4589 49.3778 26.1267C49.5146 25.7944 49.7468 25.5102 50.045 25.3097C50.3432 25.1092 50.694 25.0014 51.0533 25Z" fill="var(--fill-0, #E2A4FF)"/>
</svg>
