<svg preserveAspectRatio="none" width="100%" height="100%" overflow="visible" style="display: block;" viewBox="0 0 75 76" fill="none" xmlns="http://www.w3.org/2000/svg">
<path id="Vector" d="M66.9508 45.381L66.6133 41.9436L66.5008 41.9539L66.3917 41.9747L66.9508 45.381ZM66.9508 45.381L67.2917 48.8184L67.4042 48.8081L67.5133 48.7908L66.9508 45.381ZM53.1774 64.3197L55.3355 61.6457L55.3082 61.625L53.1774 64.3197ZM53.1774 64.3197L51.0194 66.9936L51.0467 67.0178L53.1774 64.3197ZM21.826 64.3197L19.668 61.6492L19.6134 61.6941L19.5623 61.739L21.826 64.3197ZM21.826 64.3197L23.9841 66.997L24.0386 66.9521L24.0898 66.9038L21.826 64.3197ZM8.04929 30.6225V27.1678H7.87883L7.71178 27.1851L8.04929 30.6225ZM8.04929 30.6225V34.0772H8.21975L8.39022 34.0599L8.04929 30.6225ZM48.1761 7.81115C48.1198 7.14665 48.0391 6.48415 47.9408 5.82469C47.8356 5.09871 47.617 4.39433 47.2931 3.73805L41.2349 6.90947C41.1564 6.75401 41.1735 6.69873 41.2178 6.97165C41.269 7.27912 41.3133 7.7075 41.3917 8.50209L48.1761 7.81115ZM48.5 11.0931C48.7147 11.3764 48.6431 11.5042 48.5238 10.8306C48.4113 10.188 48.3227 9.2863 48.1761 7.81115L41.3883 8.49863C41.5246 9.85978 41.6406 11.0827 41.8144 12.057C41.9815 12.9897 42.2747 14.2162 43.0758 15.2802L48.5 11.0931ZM48.5 11.0931L43.0758 15.2802C43.8055 16.2504 44.7756 17.0077 45.8875 17.4749C46.9995 17.9421 48.2137 18.1027 49.4068 17.9403L48.5 11.0931ZM51.016 9.00302C50.2519 9.65738 49.4662 10.2853 48.6602 10.8858C48.1045 11.2762 48.1488 11.138 48.5 11.0931L49.4068 17.9403C50.716 17.7607 51.7796 17.1043 52.5501 16.5584C53.3513 15.9988 54.2888 15.218 55.3321 14.3509L51.016 9.00302ZM54.4798 6.75746C53.7935 6.9888 53.1479 7.32931 52.5672 7.76623C52.0899 8.1117 51.5546 8.55736 51.016 9.00302L55.3321 14.3509C55.9423 13.8465 56.273 13.5736 56.5253 13.3939C56.7469 13.2316 56.7162 13.2868 56.556 13.3387L54.4798 6.75746ZM59.2663 6.99929C57.7523 6.33442 56.0516 6.2485 54.4798 6.75746L56.556 13.3387L59.2663 6.99929ZM62.4915 9.58341C62.0324 9.10514 61.5583 8.64197 61.0698 8.19462C60.534 7.70151 59.924 7.29802 59.2629 6.99929L56.556 13.3387C56.3992 13.2696 56.3753 13.2143 56.5799 13.3974C56.8117 13.6047 57.1151 13.9052 57.6708 14.4684L62.4915 9.58341ZM65.5394 12.6719L62.4915 9.58341L57.6708 14.4684L60.7187 17.5569L65.5394 12.6719ZM68.0895 15.9401C67.7947 15.2701 67.3965 14.6521 66.9099 14.1091C66.4683 13.6153 66.0113 13.136 65.5394 12.6719L60.7187 17.5603C61.2744 18.1234 61.571 18.4309 61.7756 18.6658C61.9562 18.8731 61.9017 18.8489 61.8335 18.69L68.0895 15.9401ZM68.3281 20.7905C68.8304 19.1977 68.7456 17.4743 68.0895 15.9401L61.8335 18.69L68.3281 20.7905ZM66.1121 24.3004C66.5355 23.7899 66.9425 23.2656 67.3326 22.7285C67.694 22.2172 68.0826 21.5816 68.3281 20.7905L61.8335 18.69C61.8846 18.5276 61.9358 18.4931 61.779 18.7211C61.6017 18.9733 61.3358 19.3084 60.8346 19.9268L66.1121 24.3004ZM64.0495 26.8534C64.0052 27.2093 63.8688 27.2507 64.2541 26.6876C64.6189 26.1521 65.1848 25.4474 66.1121 24.3004L60.8346 19.9268C59.9823 20.9839 59.2084 21.934 58.6527 22.7458C58.1174 23.5266 57.4697 24.6044 57.2924 25.931L64.0495 26.8534ZM64.0495 26.8534L57.2924 25.931C57.1322 27.14 57.2906 28.3704 57.7517 29.4972C58.2128 30.624 58.96 31.6071 59.9175 32.3464L64.0495 26.8534ZM67.2883 27.1816C66.2914 27.0971 65.2976 26.9785 64.3086 26.8258C63.6438 26.7049 63.77 26.6358 64.0495 26.8534L59.9175 32.3464C60.9676 33.1583 62.1744 33.4554 63.1017 33.6247C64.0597 33.7974 65.2666 33.9183 66.6099 34.0565L67.2883 27.1816ZM71.3078 28.073C70.6601 27.7447 69.965 27.5232 69.2486 27.4166C68.5978 27.317 67.944 27.2386 67.2883 27.1816L66.6099 34.0565C67.1146 34.1014 67.6182 34.159 68.1202 34.2292C68.3929 34.2776 68.3349 34.2949 68.1815 34.2154L71.3078 28.073ZM74.5227 31.6762C73.9168 30.1204 72.7745 28.8401 71.3078 28.073L68.1849 34.2223L74.5227 31.6762ZM75 35.8149C75 35.1102 75 34.4089 74.9625 33.8147C74.928 33.0814 74.7784 32.3583 74.5193 31.6728L68.1849 34.2223C68.1236 34.0599 68.144 34.0047 68.1645 34.281C68.1849 34.592 68.1849 35.0238 68.1849 35.8218L75 35.8149ZM75 40.1817V35.8149H68.1815V40.1817H75ZM74.5227 44.3204C74.8227 43.55 74.9216 42.8107 74.9625 42.1785C75 41.5877 75 40.8864 75 40.1817H68.1815C68.1815 40.9797 68.1815 41.4115 68.1611 41.7225C68.1406 41.9988 68.1202 41.9436 68.1815 41.7812L74.5227 44.3204ZM71.3078 47.9237C72.7745 47.1565 73.9168 45.8762 74.5227 44.3204L68.1849 41.7847L71.3078 47.9237ZM67.2883 48.815C67.9838 48.7459 68.669 48.6768 69.2486 48.58C69.8623 48.4764 70.5782 48.3037 71.3078 47.9237L68.1849 41.7847C68.3349 41.7052 68.3929 41.7225 68.1236 41.7674C67.6218 41.8403 67.1182 41.8991 66.6133 41.9436L67.2883 48.815ZM64.0529 49.1432C63.77 49.3608 63.6438 49.2917 64.3086 49.1708C64.9427 49.0568 65.8325 48.9635 67.2883 48.815L66.6099 41.9401C65.27 42.0783 64.0597 42.1958 63.1017 42.372C62.1778 42.5412 60.9676 42.8383 59.9175 43.6502L64.0529 49.1432ZM64.0529 49.1432L59.9175 43.6502C58.96 44.3895 58.2128 45.3726 57.7517 46.4994C57.2906 47.6262 57.1322 48.8566 57.2924 50.0656L64.0529 49.1432ZM66.1121 51.6927C65.4664 50.9196 64.8467 50.1246 64.2541 49.309C63.8688 48.7459 64.0086 48.7873 64.0529 49.1432L57.2924 50.0656C57.4697 51.3922 58.1174 52.47 58.6561 53.2508C59.2118 54.0627 59.9823 55.0127 60.8346 56.0698L66.1121 51.6927ZM68.3281 55.2027C68.0995 54.5085 67.7635 53.8555 67.3326 53.2681C66.9917 52.781 66.5519 52.242 66.1121 51.6927L60.8346 56.0698C61.3323 56.6882 61.6017 57.0199 61.779 57.2755C61.9392 57.5001 61.8881 57.4724 61.8335 57.3101L68.3281 55.2027ZM68.0895 60.0566C68.7464 58.5213 68.8312 56.7966 68.3281 55.2027L61.8335 57.3101L68.0895 60.0566ZM65.5394 63.3247C66.0337 62.8238 66.5212 62.3332 66.9099 61.8841C67.319 61.4073 67.7622 60.8166 68.0895 60.0531L61.8335 57.3066C61.9017 57.1477 61.9562 57.127 61.7756 57.3343C61.571 57.5692 61.2744 57.8732 60.7187 58.4398L65.5394 63.3247ZM62.4915 66.4098L65.5394 63.3247L60.7187 58.4398L57.6708 61.5248L62.4915 66.4098ZM59.2663 68.9973C59.9277 68.6975 60.5376 68.2929 61.0732 67.7985C61.513 67.4082 62.0006 66.9107 62.4915 66.4098L57.6708 61.5248C57.3171 61.892 56.9533 62.2491 56.5799 62.5958C56.3753 62.7823 56.3992 62.727 56.556 62.6579L59.2663 68.9973ZM54.4798 69.2391C56.0516 69.7481 57.7523 69.6622 59.2663 68.9973L56.556 62.6579L54.4798 69.2391ZM51.016 66.9936C51.5546 67.4393 52.0865 67.8849 52.5672 68.2304C53.0718 68.5931 53.699 68.987 54.4798 69.2391L56.556 62.6579C56.7162 62.7098 56.7469 62.7616 56.5219 62.6027C56.1166 62.2949 55.7198 61.9758 55.3321 61.6457L51.016 66.9936ZM48.5 64.907C48.1488 64.8551 48.1045 64.717 48.6602 65.1073C49.1886 65.4804 49.8807 66.0505 51.0126 66.9901L55.3321 61.6457C54.2888 60.7786 53.3513 59.9978 52.5501 59.4347C51.7796 58.8889 50.716 58.2359 49.4068 58.0563L48.5 64.907ZM48.5 64.907L49.4068 58.0563C48.2137 57.8939 46.9995 58.0545 45.8875 58.5217C44.7756 58.989 43.8055 59.7462 43.0758 60.7164L48.5 64.907ZM48.1727 68.1855C48.3193 66.7103 48.4113 65.8052 48.5238 65.1661C48.6431 64.4924 48.7113 64.6168 48.4965 64.9035L43.0758 60.713C42.2747 61.777 41.9815 63.0034 41.8144 63.9396C41.644 64.9139 41.5281 66.1368 41.3917 67.498L48.1727 68.1855ZM47.2897 72.2586C47.6647 71.5193 47.8352 70.7938 47.9374 70.1719C48.0397 69.5846 48.1011 68.8902 48.1727 68.1855L41.3917 67.498C41.3467 68.0109 41.2876 68.5189 41.2144 69.0284C41.1701 69.3048 41.153 69.2461 41.2314 69.0906L47.2897 72.2586ZM43.7407 75.5163C45.2734 74.9009 46.5343 73.7436 47.2897 72.2586L41.2349 69.0941L43.7407 75.5163ZM39.6496 76C40.3485 76 41.0405 76 41.6269 75.962C42.2474 75.9205 42.977 75.8273 43.7407 75.5163L41.2349 69.0941C41.3951 69.0319 41.4496 69.0526 41.1769 69.0733C40.6703 69.0946 40.1633 69.1015 39.6564 69.0941L39.6496 76ZM35.3437 76H39.6496L39.653 69.0906H35.3437V76ZM31.2594 75.5163C32.0197 75.8203 32.7493 75.9205 33.3731 75.962C33.9561 76 34.6482 76 35.3437 76V69.0906C34.5562 69.0906 34.13 69.0906 33.8232 69.0699C33.5504 69.0491 33.605 69.0284 33.7652 69.0906L31.2594 75.5163ZM27.7036 72.2586C28.4607 73.7448 29.7241 74.9023 31.2594 75.5163L33.7652 69.0906L27.7036 72.2586ZM26.824 68.1855C26.8922 68.8902 26.9604 69.5846 27.0558 70.1719C27.1581 70.7938 27.3286 71.5193 27.7036 72.2586L33.772 69.0941C33.8504 69.2461 33.8334 69.3048 33.7891 69.0319C33.7171 68.5235 33.6591 68.0131 33.6152 67.5014L26.824 68.1855ZM26.5001 64.9035C26.2853 64.6202 26.3535 64.4889 26.4728 65.1661C26.5853 65.8052 26.6774 66.7103 26.824 68.1855L33.6084 67.498C33.472 66.1368 33.3561 64.9139 33.1822 63.9396C33.0152 63.0069 32.722 61.7805 31.9208 60.7164L26.5001 64.9035ZM26.5001 64.9035L31.9208 60.7164C31.1912 59.7462 30.2211 58.989 29.1091 58.5217C27.9971 58.0545 26.7829 57.8939 25.5898 58.0563L26.5001 64.9035ZM23.9807 66.9936C25.116 66.0539 25.808 65.4804 26.3365 65.1108C26.8922 64.7204 26.8513 64.8586 26.5001 64.9035L25.5898 58.0563C24.2807 58.2359 23.217 58.8923 22.4465 59.4382C21.6454 59.9978 20.7078 60.7786 19.6646 61.6457L23.9807 66.9936ZM20.5169 69.2391C21.2032 69.0078 21.8488 68.6673 22.4295 68.2304C22.9068 67.8849 23.442 67.4393 23.9807 66.9936L19.668 61.6492C19.2791 61.9793 18.8846 62.2985 18.4782 62.6061C18.2566 62.7685 18.2872 62.7167 18.4475 62.6614L20.5169 69.2391ZM15.7303 68.9973C17.2444 69.6622 18.9451 69.7481 20.5169 69.2391L18.4407 62.6579L15.7303 68.9973ZM12.5018 66.4132C12.9961 66.9141 13.4836 67.4082 13.9268 67.802C14.3939 68.2166 14.9769 68.6691 15.7337 69.0008L18.4407 62.6579C18.5975 62.727 18.6214 62.7823 18.4168 62.5992C18.0434 62.2526 17.6796 61.8954 17.3258 61.5283L12.5018 66.4132ZM9.45731 63.3247L12.5052 66.4132L17.3258 61.5283L14.278 58.4398L9.45731 63.3247ZM6.9072 60.0566C7.23107 60.8166 7.67768 61.4108 8.08679 61.8875C8.47545 62.3332 8.96297 62.8272 9.45731 63.3247L14.278 58.4398C13.9156 58.0813 13.5632 57.7126 13.2211 57.3343C13.0404 57.127 13.095 57.1512 13.1632 57.3101L6.9072 60.0566ZM6.66855 55.2062C6.16628 56.799 6.25107 58.5223 6.9072 60.0566L13.1632 57.3101L6.66855 55.2062ZM8.88456 51.6962C8.46119 52.2067 8.05414 52.731 7.66405 53.2681C7.23288 53.8565 6.89684 54.5107 6.66855 55.2062L13.1632 57.3101C13.1086 57.4724 13.0609 57.5035 13.2177 57.2755C13.395 57.0233 13.6609 56.6882 14.1621 56.0698L8.88456 51.6962ZM10.9437 49.1432C10.9915 48.7873 11.1278 48.7459 10.7426 49.309C10.3778 49.8445 9.81187 50.5492 8.88456 51.6962L14.1621 56.0698C15.0144 55.0127 15.7883 54.0627 16.344 53.2508C16.8792 52.47 17.527 51.3922 17.7043 50.0656L10.9437 49.1432ZM10.9437 49.1432L17.7043 50.0656C17.8645 48.8566 17.706 47.6262 17.245 46.4994C16.7839 45.3726 16.0366 44.3895 15.0791 43.6502L10.9437 49.1432ZM7.70496 48.815C9.16411 48.9635 10.0573 49.0568 10.688 49.1708C11.3528 49.2917 11.2267 49.3608 10.9437 49.1432L15.0791 43.6502C14.0291 42.8383 12.8222 42.5412 11.8949 42.372C10.9369 42.1992 9.73005 42.0783 8.3834 41.9401L7.70496 48.815ZM3.68887 47.9237C4.41845 48.3037 5.13439 48.4764 5.74805 48.58C6.32762 48.6768 7.01288 48.7493 7.70837 48.8184L8.3834 41.9401C7.87848 41.8968 7.37826 41.8392 6.87651 41.7674C6.60377 41.719 6.66173 41.7017 6.81515 41.7812L3.68887 47.9237ZM0.477363 44.3239C1.08329 45.8797 2.22558 47.1599 3.69228 47.9271L6.81856 41.7847L0.477363 44.3239ZM6.95694e-05 40.1851C6.95694e-05 40.8899 6.96967e-05 41.5912 0.0375714 42.1854C0.0784823 42.8142 0.173941 43.5535 0.480773 44.3273L6.81856 41.7812C6.87992 41.9436 6.85947 41.9988 6.84242 41.7225C6.8204 41.2103 6.81244 40.6977 6.81856 40.1851H6.95694e-05ZM6.95694e-05 35.8184V40.1851H6.81856V35.8184H6.95694e-05ZM0.477363 31.6762C0.21944 32.362 0.0709823 33.085 0.0375714 33.8181C-0.00333955 34.4123 6.95694e-05 35.1136 6.95694e-05 35.8218H6.81856C6.81856 35.0204 6.81856 34.5885 6.84242 34.2776C6.85947 34.0012 6.87992 34.0565 6.81856 34.2189L0.477363 31.6762ZM3.69228 28.0799C2.22681 28.8454 1.08468 30.123 0.477363 31.6762L6.81856 34.2189L3.69228 28.0799ZM7.71178 27.1816C7.01629 27.2542 6.33103 27.3198 5.75146 27.4235C5.1378 27.5271 4.42186 27.6998 3.69228 28.0799L6.81856 34.2189C6.66514 34.2983 6.61059 34.281 6.87992 34.2361C7.38164 34.1632 7.88527 34.1044 8.39022 34.0599L7.71178 27.1816ZM10.9506 26.8569C11.2335 26.6393 11.3597 26.7083 10.6915 26.8293C10.0607 26.9433 9.16752 27.0365 7.71178 27.1851L8.39022 34.0599C9.73005 33.9218 10.9403 33.8043 11.9017 33.6281C12.8256 33.4588 14.0359 33.1617 15.086 32.3499L10.9506 26.8569ZM10.9506 26.8569L15.086 32.3499C16.0428 31.6101 16.7894 30.6269 17.2499 29.5002C17.7103 28.3734 17.8683 27.1432 17.7077 25.9345L10.9506 26.8569ZM8.88797 24.3039C9.81528 25.4508 10.3812 26.1556 10.7494 26.6911C11.1347 27.2542 10.9983 27.2127 10.9506 26.8569L17.7077 25.9345C17.5304 24.6079 16.886 23.5335 16.3474 22.7493C15.7917 21.9374 15.0178 20.9874 14.1655 19.9302L8.88797 24.3039ZM6.67196 20.7905C6.92083 21.585 7.30608 22.2172 7.66746 22.732C8.00838 23.2156 8.44817 23.758 8.88797 24.3039L14.1655 19.9302C13.8397 19.5362 13.5247 19.1364 13.2211 18.7245C13.0609 18.5 13.1154 18.5276 13.1666 18.69L6.67196 20.7905ZM6.9106 15.9435C6.25533 17.4768 6.17054 19.1987 6.67196 20.7905L13.1666 18.69L6.9106 15.9435ZM9.46072 12.6719C8.96638 13.1728 8.47886 13.6634 8.0902 14.1125C7.60359 14.6555 7.2054 15.2736 6.9106 15.9435L13.1666 18.69C13.0984 18.8489 13.0438 18.8731 13.2245 18.6624C13.4291 18.4274 13.7257 18.1234 14.2814 17.5569L9.46072 12.6719ZM12.5086 9.58686L9.46072 12.6719L14.2814 17.5569L17.3327 14.4718L12.5086 9.58686ZM15.7337 6.99929C15.0724 7.29907 14.4625 7.70374 13.9268 8.19807C13.4395 8.64548 12.9665 9.10865 12.5086 9.58686L17.3327 14.4718C17.8884 13.9052 18.1884 13.6047 18.4202 13.4008C18.6248 13.2143 18.6009 13.2696 18.4441 13.3387L15.7337 6.99929ZM20.5203 6.75746C18.9485 6.2485 17.2478 6.33442 15.7337 6.99929L18.4441 13.3387L20.5203 6.75746ZM23.9807 9.00302C23.442 8.55736 22.9136 8.11516 22.4329 7.76969C21.8524 7.33155 21.2068 6.98987 20.5203 6.75746L18.4441 13.3387C18.2838 13.2868 18.2532 13.235 18.4782 13.3939C18.727 13.577 19.0577 13.8465 19.668 14.3543L23.9807 9.00302ZM26.5035 11.0931C26.8547 11.1415 26.8956 11.2797 26.3399 10.8893C25.535 10.2887 24.7505 9.66077 23.9875 9.00647L19.668 14.3543C20.7112 15.218 21.6454 15.9988 22.4465 16.5654C23.217 17.1077 24.2807 17.7607 25.5898 17.9403L26.5035 11.0931ZM26.5035 11.0931L25.5933 17.9403C26.7863 18.1027 28.0005 17.9421 29.1125 17.4749C30.2245 17.0077 31.1946 16.2504 31.9242 15.2802L26.5035 11.0931ZM26.8274 7.81115C26.6808 9.28976 26.5888 10.1949 26.4762 10.834C26.3569 11.5077 26.2887 11.3798 26.5035 11.0931L31.9242 15.2802C32.7254 14.2162 33.0186 12.9932 33.1856 12.057C33.3561 11.0862 33.4788 9.85978 33.6118 8.49863L26.8274 7.81115ZM27.707 3.74151C27.3831 4.39779 27.1644 5.10216 27.0592 5.82815C26.9638 6.41545 26.8956 7.10984 26.8274 7.8146L33.6118 8.49863C33.6561 7.98714 33.713 7.48029 33.7823 6.97165C33.83 6.69528 33.847 6.75746 33.7686 6.90947L27.707 3.74151ZM31.2628 0.483728C29.7275 1.09773 28.4641 2.25525 27.707 3.74151L33.7686 6.90947L31.2628 0.483728ZM35.3471 7.04969e-05C34.6516 7.04969e-05 33.9595 7.0626e-05 33.3731 0.0380723C32.6497 0.0719288 31.9362 0.222366 31.2594 0.483728L33.772 6.90947C33.6118 6.97165 33.5572 6.95093 33.83 6.93365C34.1368 6.91292 34.563 6.90947 35.3505 6.90947L35.3471 7.04969e-05ZM39.6564 7.04969e-05H35.3471V6.90947H39.6564V7.04969e-05ZM43.7407 0.483728C43.0639 0.222366 42.3504 0.0719288 41.6269 0.0380723C41.0473 -0.00338407 40.3553 7.04969e-05 39.6598 7.04969e-05V6.90947C40.4473 6.90947 40.8735 6.90947 41.1803 6.93365C41.4531 6.95093 41.3951 6.97165 41.2349 6.90947L43.7407 0.483728ZM47.2965 3.74151C46.5394 2.25525 45.276 1.09773 43.7407 0.483728L41.2349 6.90947L47.2965 3.74151ZM47.7295 38.0018C47.7295 40.7505 46.6519 43.3866 44.7338 45.3303C42.8158 47.2739 40.2143 48.3659 37.5017 48.3659V55.2753C42.0227 55.2753 46.3584 53.4554 49.5552 50.216C52.752 46.9766 54.548 42.583 54.548 38.0018H47.7295ZM37.5017 27.6377C40.2143 27.6377 42.8158 28.7296 44.7338 30.6732C46.6519 32.6169 47.7295 35.253 47.7295 38.0018H54.548C54.548 33.4205 52.752 29.027 49.5552 25.7876C46.3584 22.5481 42.0227 20.7283 37.5017 20.7283V27.6377ZM27.274 38.0018C27.274 35.253 28.3516 32.6169 30.2696 30.6732C32.1877 28.7296 34.7892 27.6377 37.5017 27.6377V20.7283C32.9808 20.7283 28.645 22.5481 25.4482 25.7876C22.2515 29.027 20.4555 33.4205 20.4555 38.0018H27.274ZM37.5017 48.3659C34.7892 48.3659 32.1877 47.2739 30.2696 45.3303C28.3516 43.3866 27.274 40.7505 27.274 38.0018H20.4555C20.4555 42.583 22.2515 46.9766 25.4482 50.216C28.645 53.4554 32.9808 55.2753 37.5017 55.2753V48.3659Z" fill="var(--fill-0, #E2A4FF)"/>
</svg>
