<svg preserveAspectRatio="none" width="100%" height="100%" overflow="visible" style="display: block;" viewBox="0 0 80 62.6241" fill="none" xmlns="http://www.w3.org/2000/svg">
<g id="Group 164429">
<path id="Vector" d="M25.6033 9.65137C23.5633 9.65137 21.9233 10.2394 20.7713 11.4994C19.6273 12.7234 19.0993 14.4274 19.0993 16.5154C19.0967 18.0727 19.446 19.4887 20.1473 20.7634V20.7714C20.8433 22.0074 22.0393 23.3554 23.6953 24.8114V24.8154C24.9753 25.9314 25.8073 26.8514 26.2393 27.5834V27.5914C26.6607 28.2714 26.8727 29.0914 26.8753 30.0514C26.8753 30.8794 26.7033 31.3514 26.4833 31.5994C26.2953 31.8154 25.9793 31.9714 25.4233 31.9714C24.8633 31.9714 24.5433 31.8114 24.3433 31.5714C24.1313 31.3194 23.9713 30.8714 23.9713 30.1234V27.7954H19.0273V29.8354C19.0273 31.9674 19.5433 33.6994 20.6553 34.9514L20.6593 34.9554C21.7913 36.1954 23.4273 36.7714 25.4593 36.7714C27.5153 36.7714 29.1753 36.1834 30.3273 34.9234C31.4953 33.6714 32.0353 31.9234 32.0353 29.7634C32.0407 28.0967 31.7047 26.6234 31.0273 25.3434C30.3553 24.0714 29.1513 22.7074 27.4713 21.2474C26.1913 20.1354 25.3473 19.2194 24.8873 18.5034C24.4733 17.8299 24.2557 17.054 24.2593 16.2634C24.2593 15.5274 24.4113 15.0834 24.6193 14.8354C24.8033 14.6074 25.1073 14.4514 25.6393 14.4514C26.1513 14.4514 26.4553 14.6074 26.6513 14.8434L26.6633 14.8594C26.8553 15.0794 27.0193 15.5234 27.0193 16.3354V18.2314H31.9633V16.5874C31.9633 14.4594 31.4513 12.7354 30.3353 11.5074C29.2313 10.2394 27.6153 9.65137 25.6033 9.65137Z" fill="var(--fill-0, #E2A4FF)"/>
<path id="Vector_2" fill-rule="evenodd" clip-rule="evenodd" d="M53.9479 9.65137C51.8879 9.65137 50.2199 10.2394 49.0439 11.4994C47.8799 12.7474 47.3359 14.4714 47.3359 16.5874V29.8354C47.3359 31.9514 47.8799 33.6754 49.0479 34.9234C50.2199 36.1834 51.8879 36.7714 53.9479 36.7714C56.0079 36.7714 57.6759 36.1834 58.8519 34.9234C60.0159 33.6754 60.5599 31.9514 60.5599 29.8354V16.5874C60.5599 14.4674 60.0159 12.7474 58.8519 11.4994C57.6759 10.2394 56.0119 9.65137 53.9479 9.65137ZM52.4959 16.3354C52.4959 15.5754 52.6559 15.1154 52.8719 14.8554C53.0719 14.6154 53.3919 14.4514 53.9519 14.4514C54.5079 14.4514 54.8279 14.6114 55.0239 14.8514C55.2399 15.1154 55.3999 15.5714 55.3999 16.3354V30.0874C55.3999 30.8474 55.2399 31.3074 55.0239 31.5674C54.8239 31.8074 54.5039 31.9714 53.9479 31.9714C53.3879 31.9714 53.0679 31.8114 52.8719 31.5714C52.6559 31.3074 52.4959 30.8514 52.4959 30.0874V16.3354Z" fill="var(--fill-0, #E2A4FF)"/>
<path id="Vector_3" d="M45.8281 10.0117H33.8281V36.4117H45.8281V31.6117H38.9881V25.0717H44.4241V20.2717H38.9841V14.8117H45.8241L45.8281 10.0117Z" fill="var(--fill-0, #E2A4FF)"/>
<path id="Vector_4" fill-rule="evenodd" clip-rule="evenodd" d="M9 0C6.61305 0 4.32387 0.948212 2.63604 2.63604C0.948211 4.32387 0 6.61305 0 9V38.624C0 41.0109 0.948211 43.3001 2.63604 44.988C4.32387 46.6758 6.61305 47.624 9 47.624H37V56.624H28C27.2044 56.624 26.4413 56.9401 25.8787 57.5027C25.3161 58.0653 25 58.8283 25 59.624C25 60.4196 25.3161 61.1827 25.8787 61.7453C26.4413 62.3079 27.2044 62.624 28 62.624H52C52.7956 62.624 53.5587 62.3079 54.1213 61.7453C54.6839 61.1827 55 60.4196 55 59.624C55 58.8283 54.6839 58.0653 54.1213 57.5027C53.5587 56.9401 52.7956 56.624 52 56.624H43V47.624H71C73.3869 47.624 75.6761 46.6758 77.364 44.988C79.0518 43.3001 80 41.0109 80 38.624V9C80 6.61305 79.0518 4.32387 77.364 2.63604C75.6761 0.948212 73.3869 0 71 0H9ZM6 9C6 8.20435 6.31607 7.44129 6.87868 6.87868C7.44129 6.31607 8.20435 6 9 6H71C71.7956 6 72.5587 6.31607 73.1213 6.87868C73.6839 7.44129 74 8.20435 74 9V38.624C74 39.4197 73.6839 40.1827 73.1213 40.7453C72.5587 41.3079 71.7956 41.624 71 41.624H9C8.20435 41.624 7.44129 41.3079 6.87868 40.7453C6.31607 40.1827 6 39.4197 6 38.624V9Z" fill="var(--fill-0, #E2A4FF)"/>
</g>
</svg>
