<svg preserveAspectRatio="none" width="100%" height="100%" overflow="visible" style="display: block;" viewBox="0 0 67.571 74.5" fill="none" xmlns="http://www.w3.org/2000/svg">
<g id="Group">
<path id="Vector (Stroke)" d="M55.4419 33.7849V30.3198C55.4419 23.7128 55.4369 19.0186 54.958 15.4577C54.4891 11.9715 53.6091 9.9623 52.1426 8.49698C50.6749 7.031 48.6635 6.15413 45.1785 5.68496C41.6183 5.20583 36.9255 5.19768 30.3198 5.19768C23.7128 5.19768 19.0185 5.20265 15.4577 5.68158C11.9715 6.15045 9.9623 7.03042 8.49698 8.49698C7.031 9.96462 6.15413 11.976 5.68496 15.4611C5.20583 19.0212 5.19768 23.7141 5.19768 30.3198V44.1802C5.19768 50.7872 5.20265 55.4815 5.68157 59.0423C6.15045 62.5285 7.03041 64.5377 8.49698 66.003C9.96461 67.469 11.976 68.3459 15.4611 68.815C19.0212 69.2942 23.7141 69.3023 30.3198 69.3023C31.7551 69.3023 32.9186 70.4659 32.9186 71.9012C32.9186 73.3365 31.7551 74.5 30.3198 74.5C23.8602 74.5 18.7547 74.5053 14.7674 73.9687C10.7051 73.4218 7.41548 72.2691 4.82206 69.6779C2.22829 67.0859 1.07768 63.7977 0.531275 59.736C-0.00507921 55.7482 2.04334e-06 50.6402 2.04334e-06 44.1802V30.3198C2.04334e-06 23.8602 -0.00534673 18.7547 0.531275 14.7674C1.07816 10.7051 2.23086 7.41548 4.82206 4.82206C7.41405 2.22829 10.7023 1.07768 14.764 0.531277C18.7518 -0.0050773 23.8598 3.95095e-06 30.3198 3.95095e-06C36.7793 3.95095e-06 41.8849 -0.00534503 45.8722 0.531277C49.9344 1.07816 53.2241 2.23086 55.8175 4.82206C58.4112 7.41405 59.5618 10.7023 60.1083 14.764C60.6446 18.7518 60.6395 23.8598 60.6395 30.3198V33.7849C60.6395 35.2202 59.476 36.3837 58.0407 36.3837C56.6054 36.3837 55.4419 35.2202 55.4419 33.7849Z" fill="var(--fill-0, #E2A4FF)"/>
<path id="Vector (Stroke)_2" d="M49.1296 41.7844C52.9273 41.7844 56.5731 43.2775 59.2813 45.9399C61.9893 48.602 63.5443 52.2203 63.6093 56.0171C63.6422 57.9393 63.2901 59.849 62.5772 61.6344C62.1913 62.601 61.6991 63.5175 61.1188 64.3754L66.8105 70.0637C67.8244 71.0784 67.8243 72.7239 66.8105 73.7386C65.7956 74.7535 64.1471 74.7535 63.1322 73.7386L57.4811 68.0875C56.623 68.6936 55.7036 69.2122 54.73 69.6204C52.957 70.3637 51.0521 70.7472 49.1296 70.7472C47.2078 70.7471 45.3051 70.3633 43.5326 69.6204C41.7597 68.8772 40.153 67.7867 38.8053 66.4159C37.4576 65.0449 36.3949 63.4198 35.682 61.6344C34.9692 59.8492 34.6205 57.9391 34.6533 56.0171C34.7183 52.2208 36.2706 48.6019 38.9779 45.9399C41.6859 43.2777 45.3323 41.7847 49.1296 41.7844ZM49.1296 46.9821C46.6954 46.9824 44.3583 47.9387 42.6224 49.6452C40.8867 51.3516 39.8895 53.6715 39.8476 56.1051C39.8265 57.3373 40.0538 58.5644 40.5108 59.709C40.9677 60.8525 41.6476 61.8932 42.5107 62.7714C43.3747 63.6502 44.4061 64.3489 45.5427 64.8254C46.6788 65.3016 47.8978 65.5494 49.1296 65.5496C50.362 65.5496 51.5834 65.3019 52.7199 64.8254C53.8563 64.3489 54.8881 63.6501 55.7519 62.7714C56.6149 61.8932 57.2951 60.8523 57.7518 59.709C58.2088 58.5644 58.4327 57.3373 58.4117 56.1051C58.3697 53.6715 57.3726 51.3516 55.6369 49.6452C53.9008 47.939 51.5638 46.9821 49.1296 46.9821Z" fill="var(--fill-0, #E2A4FF)"/>
<path id="Vector (Stroke)_3" d="M30.3198 31.186C31.7551 31.186 32.9186 32.3496 32.9186 33.7849C32.9186 35.2202 31.7551 36.3837 30.3198 36.3837H16.4593C15.024 36.3837 13.8605 35.2202 13.8605 33.7849C13.8605 32.3496 15.024 31.186 16.4593 31.186H30.3198ZM44.1802 17.3256C45.6155 17.3256 46.7791 18.4891 46.7791 19.9244C46.7791 21.3597 45.6155 22.5233 44.1802 22.5233H16.4593C15.024 22.5233 13.8605 21.3597 13.8605 19.9244C13.8605 18.4891 15.024 17.3256 16.4593 17.3256H44.1802Z" fill="var(--fill-0, #E2A4FF)"/>
</g>
</svg>
