<svg preserveAspectRatio="none" width="100%" height="100%" overflow="visible" style="display: block;" viewBox="0 0 70 53" fill="none" xmlns="http://www.w3.org/2000/svg">
<path id="Vector" d="M62.0336 0.86948C61.2852 0.38713 60.4293 0.0953175 59.5412 0.0196948C58.6531 -0.0559279 57.76 0.0869547 56.9403 0.435783L30.0808 10.9746C29.4456 11.2346 28.7651 11.3673 28.0784 11.365H10.8831C9.4399 11.365 8.05582 11.9361 7.03533 12.9528C6.01485 13.9695 5.44154 15.3484 5.44154 16.7862V17.2199H0V30.2308H5.44154V30.7947C5.47564 32.2098 6.06397 33.5555 7.08078 34.5442C8.09759 35.5329 9.46224 36.0862 10.8831 36.0858L17.4129 49.8774C17.8551 50.8061 18.5512 51.5918 19.4214 52.1441C20.2915 52.6965 21.3004 52.9931 22.3321 53H25.0746C26.5103 52.9886 27.8832 52.4123 28.8943 51.3969C29.9054 50.3815 30.4727 49.0091 30.4726 47.5788V36.6062L56.9403 47.1451C57.5922 47.4002 58.2859 47.5325 58.9863 47.5354C60.073 47.5155 61.1309 47.1842 62.0336 46.5813C62.7496 46.0996 63.3402 45.4551 63.7565 44.7009C64.1729 43.9467 64.403 43.1046 64.4279 42.2443V5.33657C64.4239 4.45407 64.2037 3.58587 63.7864 2.80739C63.3692 2.02891 62.7675 1.36368 62.0336 0.86948ZM25.0311 16.7862V30.7947H10.8831V16.7862H25.0311ZM25.0311 47.5788H22.2886L16.9341 36.0858H25.0311V47.5788ZM32.0833 31.4452C31.5664 31.1822 31.0274 30.9646 30.4726 30.7947V16.4826C31.022 16.3688 31.5608 16.2093 32.0833 16.0055L58.9863 5.33657V42.1142L32.0833 31.4452ZM64.5585 18.3041V29.1466C66.0016 29.1466 67.3857 28.5754 68.4062 27.5588C69.4267 26.5421 70 25.1632 70 23.7254C70 22.2876 69.4267 20.9087 68.4062 19.892C67.3857 18.8753 66.0016 18.3041 64.5585 18.3041Z" fill="var(--fill-0, #E2A4FF)"/>
</svg>
