<svg preserveAspectRatio="none" width="100%" height="100%" overflow="visible" style="display: block;" viewBox="0 0 66 66" fill="none" xmlns="http://www.w3.org/2000/svg">
<path id="Vector" fill-rule="evenodd" clip-rule="evenodd" d="M8.09434 6.22642C7.59894 6.22642 7.12382 6.42321 6.77352 6.77352C6.42321 7.12382 6.22642 7.59894 6.22642 8.09434V18.0566C6.22642 18.8823 5.89842 19.6741 5.31458 20.258C4.73074 20.8418 3.93888 21.1698 3.11321 21.1698C2.28753 21.1698 1.49568 20.8418 0.911837 20.258C0.327998 19.6741 0 18.8823 0 18.0566V8.09434C0 5.94759 0.852794 3.88876 2.37078 2.37078C3.88876 0.852794 5.94759 0 8.09434 0H18.0566C18.8823 0 19.6741 0.327998 20.258 0.911837C20.8418 1.49568 21.1698 2.28753 21.1698 3.11321C21.1698 3.93888 20.8418 4.73074 20.258 5.31458C19.6741 5.89842 18.8823 6.22642 18.0566 6.22642H8.09434ZM47.9434 0C47.1177 0 46.3259 0.327998 45.742 0.911837C45.1582 1.49568 44.8302 2.28753 44.8302 3.11321C44.8302 3.93888 45.1582 4.73074 45.742 5.31458C46.3259 5.89842 47.1177 6.22642 47.9434 6.22642H57.9057C58.4011 6.22642 58.8762 6.42321 59.2265 6.77352C59.5768 7.12382 59.7736 7.59894 59.7736 8.09434V18.0566C59.7736 18.8823 60.1016 19.6741 60.6854 20.258C61.2693 20.8418 62.0611 21.1698 62.8868 21.1698C63.7125 21.1698 64.5043 20.8418 65.0882 20.258C65.672 19.6741 66 18.8823 66 18.0566V8.09434C66 5.94759 65.1472 3.88876 63.6292 2.37078C62.1112 0.852794 60.0524 0 57.9057 0H47.9434ZM66 47.9434C66 47.1177 65.672 46.3259 65.0882 45.742C64.5043 45.1582 63.7125 44.8302 62.8868 44.8302C62.0611 44.8302 61.2693 45.1582 60.6854 45.742C60.1016 46.3259 59.7736 47.1177 59.7736 47.9434V57.9057C59.7736 58.4011 59.5768 58.8762 59.2265 59.2265C58.8762 59.5768 58.4011 59.7736 57.9057 59.7736H47.9434C47.1177 59.7736 46.3259 60.1016 45.742 60.6854C45.1582 61.2693 44.8302 62.0611 44.8302 62.8868C44.8302 63.7125 45.1582 64.5043 45.742 65.0882C46.3259 65.672 47.1177 66 47.9434 66H57.9057C60.0524 66 62.1112 65.1472 63.6292 63.6292C65.1472 62.1112 66 60.0524 66 57.9057V47.9434ZM6.22642 47.9434C6.22642 47.1177 5.89842 46.3259 5.31458 45.742C4.73074 45.1582 3.93888 44.8302 3.11321 44.8302C2.28753 44.8302 1.49568 45.1582 0.911837 45.742C0.327998 46.3259 0 47.1177 0 47.9434V57.9057C0 60.0524 0.852794 62.1112 2.37078 63.6292C3.88876 65.1472 5.94759 66 8.09434 66H18.0566C18.8823 66 19.6741 65.672 20.258 65.0882C20.8418 64.5043 21.1698 63.7125 21.1698 62.8868C21.1698 62.0611 20.8418 61.2693 20.258 60.6854C19.6741 60.1016 18.8823 59.7736 18.0566 59.7736H8.09434C7.59894 59.7736 7.12382 59.5768 6.77352 59.2265C6.42321 58.8762 6.22642 58.4011 6.22642 57.9057V47.9434ZM29.2642 17.434C27.7106 17.434 26.1722 17.74 24.7369 18.3345C23.3016 18.929 21.9975 19.8004 20.8989 20.8989C19.8004 21.9975 18.929 23.3016 18.3345 24.7369C17.74 26.1722 17.434 27.7106 17.434 29.2642C17.434 30.8177 17.74 32.3561 18.3345 33.7914C18.929 35.2267 19.8004 36.5308 20.8989 37.6294C21.9975 38.7279 23.3016 39.5993 24.7369 40.1938C26.1722 40.7883 27.7106 41.0943 29.2642 41.0943C32.4017 41.0943 35.4108 39.8479 37.6294 37.6294C39.8479 35.4108 41.0943 32.4017 41.0943 29.2642C41.0943 26.1266 39.8479 23.1175 37.6294 20.8989C35.4108 18.6804 32.4017 17.434 29.2642 17.434ZM11.2075 29.2642C11.2095 26.4816 11.8546 23.7372 13.0923 21.2452C14.33 18.7531 16.1269 16.5808 18.3428 14.8978C20.5586 13.2148 23.1334 12.0667 25.8662 11.5431C28.599 11.0195 31.4159 11.1345 34.0969 11.8793C36.7779 12.624 39.2505 13.9782 41.3217 15.8363C43.3929 17.6944 45.0067 20.006 46.0371 22.5907C47.0675 25.1754 47.4866 27.9632 47.2617 30.7367C47.0368 33.5101 46.1739 36.194 44.7405 38.5789L52.272 46.1054C53.0904 46.9238 53.5502 48.0338 53.5502 49.1912C53.5502 50.3486 53.0904 51.4586 52.272 52.277C51.4536 53.0954 50.3436 53.5552 49.1862 53.5552C48.0288 53.5552 46.9188 53.0954 46.1004 52.277L38.5789 44.7405C35.8388 46.3905 32.7097 47.283 29.5116 47.3269C26.3134 47.3707 23.161 46.5642 20.3768 44.99C17.5926 43.4157 15.2765 41.1302 13.6655 38.3671C12.0544 35.604 11.2062 32.4626 11.2075 29.2642Z" fill="var(--fill-0, #E2A4FF)"/>
</svg>
