<svg preserveAspectRatio="none" width="100%" height="100%" overflow="visible" style="display: block;" viewBox="0 0 63.9997 46.9465" fill="none" xmlns="http://www.w3.org/2000/svg">
<g id="Group 164428">
<path id="Vector (Stroke)" d="M42.6713 3.02792e-05C49.1944 0.000585883 54.0887 5.11422 53.5993 11.8909C53.1486 18.1414 48.4456 23.4726 42.6713 23.4733C36.8983 23.4733 32.1821 18.1442 31.739 11.8867C31.5006 8.52111 32.5527 5.52251 34.5815 3.3593C36.605 1.20206 39.4848 3.02792e-05 42.6713 3.02792e-05ZM42.6713 4.26789C40.5726 4.26789 38.8512 5.04798 37.6949 6.28095C36.5441 7.50816 35.833 9.30983 35.9944 11.5866C36.3198 16.1799 39.6686 19.2054 42.6713 19.2054C45.6717 19.2047 49.0128 16.1789 49.344 11.5824C49.6545 7.27964 46.7179 4.26842 42.6713 4.26789Z" fill="var(--fill-0, #E2A4FF)"/>
<path id="Vector (Stroke)_2" d="M42.6702 27.7411C51.9044 27.7413 61.4697 32.2241 63.8886 42.091L63.9636 42.4994C64.242 44.5681 62.9014 46.9465 60.2501 46.9465H25.0902C22.2696 46.9465 20.9164 44.2456 21.4559 42.0826C23.8753 32.3719 33.4177 27.7411 42.6702 27.7411ZM42.6702 32.009C34.7082 32.009 27.6654 35.8486 25.7154 42.6786H59.6249C57.6813 35.7379 50.658 32.0092 42.6702 32.009Z" fill="var(--fill-0, #E2A4FF)"/>
<path id="Vector (Stroke)_3" d="M17.4615 4.26789C22.9293 4.26789 27.0673 8.62991 26.6599 14.2832C26.2889 19.4296 22.3642 24.0067 17.4615 24.0067C12.5614 24.006 8.63202 19.4314 8.26727 14.279C7.86115 8.53197 12.0086 4.26856 17.4615 4.26789ZM17.4615 8.53575C14.4709 8.53637 12.2917 10.7141 12.5226 13.9789C12.7714 17.4917 15.3525 19.738 17.4615 19.7389C19.5686 19.7389 22.1512 17.4919 22.4046 13.9748C22.6341 10.7809 20.4383 8.53575 17.4615 8.53575Z" fill="var(--fill-0, #E2A4FF)"/>
<path id="Vector (Stroke)_4" d="M17.4622 26.4809C20.481 26.4809 23.4595 26.9361 26.223 28.2022C27.2933 28.6936 27.7639 29.9612 27.2732 31.0322C26.7821 32.103 25.5144 32.5732 24.4433 32.0824C22.392 31.1426 20.0636 30.7487 17.4622 30.7487C11.4442 30.7491 6.20962 33.5433 4.50854 38.4092H18.3958C19.5737 38.4092 20.5288 39.3654 20.5297 40.5431C20.5297 41.7217 19.5743 42.6771 18.3958 42.6771H3.42073C0.831831 42.6761 -0.376547 40.1995 0.103139 38.2633L0.307363 37.5215C2.59336 30.0111 10.201 26.4813 17.4622 26.4809Z" fill="var(--fill-0, #E2A4FF)"/>
</g>
</svg>
