<svg preserveAspectRatio="none" width="100%" height="100%" overflow="visible" style="display: block;" viewBox="0 0 56 34" fill="none" xmlns="http://www.w3.org/2000/svg">
<path id="Vector" d="M55.7761 1.75582C55.492 1.06383 54.9485 0.51393 54.2645 0.226557C53.928 0.0814443 53.5666 0.00447447 53.2008 0H39.2049C38.4625 0 37.7505 0.298367 37.2255 0.829464C36.7006 1.36056 36.4057 2.08088 36.4057 2.83196C36.4057 3.58305 36.7006 4.30337 37.2255 4.83447C37.7505 5.36556 38.4625 5.66393 39.2049 5.66393H46.4548L30.8073 21.4946L21.598 12.1491C21.3378 11.8837 21.0282 11.673 20.6871 11.5292C20.3459 11.3855 19.9801 11.3114 19.6105 11.3114C19.241 11.3114 18.8752 11.3855 18.534 11.5292C18.1929 11.673 17.8833 11.8837 17.6231 12.1491L0.827995 29.1409C0.565632 29.4042 0.357388 29.7174 0.215277 30.0625C0.0731659 30.4076 0 30.7778 0 31.1516C0 31.5255 0.0731659 31.8956 0.215277 32.2407C0.357388 32.5858 0.565632 32.899 0.827995 33.1623C1.08822 33.4277 1.39781 33.6384 1.73892 33.7822C2.08002 33.926 2.44589 34 2.81542 34C3.18495 34 3.55081 33.926 3.89192 33.7822C4.23303 33.6384 4.54262 33.4277 4.80284 33.1623L19.6105 18.1529L28.8199 27.4984C29.0801 27.7638 29.3897 27.9745 29.7308 28.1183C30.0719 28.262 30.4378 28.3361 30.8073 28.3361C31.1768 28.3361 31.5427 28.262 31.8838 28.1183C32.2249 27.9745 32.5345 27.7638 32.7947 27.4984L50.4016 9.657V16.9918C50.4016 17.7429 50.6965 18.4632 51.2215 18.9943C51.7464 19.5254 52.4584 19.8238 53.2008 19.8238C53.9432 19.8238 54.6552 19.5254 55.1801 18.9943C55.7051 18.4632 56 17.7429 56 16.9918V2.83196C55.9956 2.46189 55.9195 2.09628 55.7761 1.75582Z" fill="var(--fill-0, #E2A4FF)"/>
</svg>
