<svg preserveAspectRatio="none" width="100%" height="100%" overflow="visible" style="display: block;" viewBox="0 0 46.0127 50.186" fill="none" xmlns="http://www.w3.org/2000/svg">
<g id="Group">
<path id="Vector" d="M24.3705 48.9068L24.3451 48.9115L24.1818 48.992L24.1358 49.0012L24.1036 48.992L23.9402 48.9115C23.9157 48.9038 23.8973 48.9076 23.885 48.923L23.8758 48.946L23.8367 49.9306L23.8482 49.9766L23.8712 50.0066L24.1105 50.1768L24.145 50.186L24.1726 50.1768L24.4119 50.0066L24.4395 49.9697L24.4487 49.9306L24.4096 48.9483C24.4034 48.9237 24.3904 48.9099 24.3705 48.9068ZM24.9801 48.6469L24.9502 48.6515L24.5246 48.8654L24.5016 48.8884L24.4947 48.9138L24.5361 49.903L24.5476 49.9306L24.566 49.9467L25.0284 50.1607C25.0576 50.1684 25.0798 50.1622 25.0952 50.1423L25.1044 50.1101L25.0261 48.6975C25.0185 48.6699 25.0031 48.653 24.9801 48.6469ZM23.3352 48.6515C23.325 48.6453 23.3129 48.6433 23.3013 48.6459C23.2898 48.6485 23.2796 48.6554 23.2731 48.6653L23.2593 48.6975L23.181 50.1101C23.1826 50.1377 23.1956 50.1561 23.2201 50.1653L23.2546 50.1607L23.7171 49.9467L23.7401 49.9283L23.7493 49.903L23.7884 48.9138L23.7815 48.8861L23.7585 48.8631L23.3352 48.6515Z" fill="var(--fill-0, #E2A4FF)"/>
<path id="Vector_2" d="M23.0063 0C35.7127 0 46.0127 10.2999 46.0127 23.0063C46.0127 35.7127 35.7127 46.0127 23.0063 46.0127C10.3 46.0127 2.01971e-05 35.7127 2.01971e-05 23.0063C2.01971e-05 10.2999 10.3 0 23.0063 0ZM23.0063 4.60127C18.125 4.60127 13.4436 6.54036 9.992 9.99198C6.54039 13.4436 4.60129 18.125 4.60129 23.0063C4.60129 27.8877 6.54039 32.5691 9.992 36.0207C13.4436 39.4723 18.125 41.4114 23.0063 41.4114C27.8877 41.4114 32.5691 39.4723 36.0207 36.0207C39.4723 32.5691 41.4114 27.8877 41.4114 23.0063C41.4114 18.125 39.4723 13.4436 36.0207 9.99198C32.5691 6.54036 27.8877 4.60127 23.0063 4.60127ZM23.0063 9.20253C23.5698 9.20261 24.1137 9.40949 24.5348 9.78394C24.9559 10.1584 25.2249 10.6744 25.2909 11.234L25.307 11.5032V22.0539L31.5348 28.2817C31.9474 28.6957 32.187 29.2512 32.2048 29.8355C32.2226 30.4197 32.0174 30.9889 31.6308 31.4273C31.2443 31.8657 30.7053 32.1405 30.1234 32.196C29.5415 32.2514 28.9604 32.0833 28.498 31.7257L28.2817 31.5348L21.3798 24.6329C21.0222 24.275 20.7926 23.8093 20.7264 23.3077L20.7057 23.0063V11.5032C20.7057 10.893 20.9481 10.3078 21.3796 9.87637C21.811 9.44492 22.3962 9.20253 23.0063 9.20253Z" fill="var(--fill-0, #E2A4FF)"/>
</g>
</svg>
