<svg preserveAspectRatio="none" width="100%" height="100%" overflow="visible" style="display: block;" viewBox="0 0 80 80" fill="none" xmlns="http://www.w3.org/2000/svg">
<path id="Vector (Stroke)" d="M11.1628 77.2093V66.5698C11.1634 65.446 11.8379 64.4317 12.8743 63.9971C13.9111 63.5624 15.1066 63.7941 15.9084 64.5821C22.3342 70.8968 30.9872 74.4292 39.9964 74.4186H40C59.0094 74.4186 74.4186 59.0094 74.4186 40L74.375 38.2231C74.1645 34.0939 73.2101 30.0314 71.5552 26.2318C70.9399 24.8192 71.5856 23.174 72.9978 22.5581C74.4105 21.9428 76.0556 22.5885 76.6715 24.0007C78.8699 29.0476 80.0033 34.4951 80 40C80 62.092 62.092 79.9964 40 79.9964C31.6068 80.0056 23.4858 77.3656 16.7442 72.54V77.2093C16.7442 78.7506 15.4947 80 13.9535 80C12.4122 80 11.1628 78.7506 11.1628 77.2093ZM53.7754 40C53.7754 38.3891 54.3011 36.5069 55.3089 35.2144L55.3597 35.149L55.4142 35.0872L57.678 32.5145L57.6817 32.5073C57.9438 32.211 58.1476 31.9813 58.3176 31.7805C58.377 31.7104 58.4227 31.6422 58.4666 31.5879C58.4333 31.5222 58.4005 31.4423 58.3539 31.3554C58.2302 31.1247 58.0793 30.8581 57.8852 30.516V30.5124L57.8815 30.5087L56.7987 28.5974C56.5896 28.2277 56.4273 27.9387 56.2827 27.6962C56.2434 27.6304 56.2027 27.5745 56.1701 27.5218C56.1184 27.5347 56.0611 27.5454 55.9993 27.5618C55.7318 27.6326 55.4199 27.7247 55.0182 27.8416L55.0073 27.8452L52.3292 28.6119L52.2602 28.6301L52.1948 28.6446C50.5369 29.0308 48.7938 28.8089 47.2856 28.0196L47.2311 27.9906L47.1766 27.9578L46.4353 27.5291L46.3699 27.4891L46.3081 27.4491C45.0229 26.6057 44.0404 25.3743 43.4993 23.9353L43.4775 23.8808L43.4593 23.8263L42.7253 21.6025L42.7217 21.5952C42.5994 21.2198 42.5069 20.9273 42.4201 20.6795C42.3932 20.6028 42.3624 20.5359 42.3401 20.476C42.29 20.4742 42.2337 20.47 42.173 20.4688C41.9158 20.4633 41.6177 20.4651 41.2282 20.4651H38.7791C38.3888 20.4651 38.0877 20.4667 37.8307 20.4724C37.768 20.4738 37.7113 20.4777 37.6599 20.4797C37.638 20.5385 37.6098 20.6046 37.5836 20.6795C37.4968 20.9273 37.4042 21.2199 37.282 21.5952L37.2783 21.6025L36.5443 23.8263L36.5262 23.8844L36.5044 23.939C35.962 25.3761 34.9767 26.6036 33.6919 27.4455L33.6374 27.4855L33.5792 27.5182L32.8379 27.9542L32.7798 27.9869L32.7217 28.016C31.2019 28.8157 29.4642 29.0283 27.8125 28.6446L27.7435 28.6301L27.6744 28.6119L24.9964 27.8452L24.9855 27.8416C24.5837 27.7247 24.2718 27.6326 24.0044 27.5618C23.9412 27.545 23.8825 27.5349 23.8299 27.5218C23.7975 27.5741 23.7598 27.6311 23.7209 27.6962C23.5763 27.9387 23.4176 28.2277 23.2086 28.5974H23.2049L22.1221 30.5087C21.9259 30.8554 21.7756 31.1252 21.6497 31.359C21.6038 31.4443 21.5665 31.5194 21.5334 31.5843C21.5783 31.6398 21.6285 31.7046 21.6897 31.7769L22.3292 32.5109V32.5145L24.593 35.0872L24.6475 35.149L24.6984 35.2144C25.7062 36.5069 26.2318 38.3891 26.2318 40C26.2318 41.6154 25.704 43.4908 24.702 44.782L24.6512 44.8474L24.593 44.9128L22.3292 47.4855L22.3256 47.4927C22.0622 47.7905 21.8569 48.0216 21.686 48.2231C21.627 48.2927 21.5771 48.3545 21.5334 48.4084C21.5668 48.4739 21.603 48.5507 21.6497 48.6374L22.1221 49.484L22.1257 49.4876L23.2049 51.4026L23.7209 52.3001C23.76 52.3657 23.801 52.4219 23.8336 52.4746C23.8849 52.4618 23.9429 52.4545 24.0044 52.4382C24.2718 52.3674 24.5837 52.2753 24.9855 52.1584L24.9964 52.1548L27.6744 51.3881L27.7435 51.3699L27.8089 51.3554C29.2593 51.0176 30.774 51.1457 32.1403 51.7115L32.718 51.9804L32.7725 52.0094L32.827 52.0422L33.5683 52.4709L33.6301 52.5073L33.6846 52.5436C34.8217 53.2838 35.7117 54.3248 36.2791 55.5269L36.5007 56.0538L36.5262 56.1119L36.5443 56.1737L37.2783 58.4012L37.282 58.4084C37.4043 58.784 37.4968 59.0768 37.5836 59.3241C37.6096 59.3982 37.6382 59.4621 37.6599 59.5204C37.7114 59.5222 37.768 59.5299 37.8307 59.5313C38.0887 59.5368 38.3882 59.5349 38.7791 59.5349H41.2282C41.6185 59.5349 41.9195 59.5334 42.1766 59.5276C42.2393 59.5262 42.2959 59.5186 42.3474 59.5167C42.3687 59.4592 42.3982 59.3969 42.4237 59.3241C42.5104 59.0768 42.6029 58.784 42.7253 58.4084L42.7289 58.4012L43.4629 56.1737L43.4993 56.0647C44.0418 54.6183 45.0319 53.3824 46.3299 52.5436L46.3772 52.5109L46.428 52.4818L47.1693 52.0458L47.2275 52.0131L47.2856 51.984C48.6158 51.284 50.1129 51.0333 51.5734 51.2391L52.1984 51.3554L52.2638 51.3699L52.3328 51.3881L55.0109 52.1548L55.0218 52.1584C55.4236 52.2753 55.7355 52.3674 56.0029 52.4382C56.063 52.4541 56.1196 52.462 56.1701 52.4746C56.203 52.4215 56.2468 52.3664 56.2863 52.3001C56.4313 52.0572 56.5932 51.7715 56.8023 51.4026L57.8852 49.4913C58.0814 49.1446 58.2317 48.8749 58.3576 48.641C58.4038 48.555 58.437 48.4773 58.4702 48.4121C58.4262 48.3578 58.3772 48.2935 58.3176 48.2231C58.146 48.0205 57.9458 47.7886 57.6817 47.4891L57.678 47.4855L55.4142 44.9128L55.3597 44.851L55.3089 44.7856C54.3011 43.4931 53.7754 41.6109 53.7754 40ZM0 40C1.34234e-05 17.9093 17.9061 0.0056013 39.9964 0.00363372L40 0V0.00363372C48.3924 -0.00562212 56.5145 2.63157 63.2558 7.4564V2.7907C63.2558 1.24945 64.5053 3.8355e-06 66.0465 0C67.5878 0 68.8372 1.24945 68.8372 2.7907V13.4302C68.8367 14.554 68.1621 15.5683 67.1257 16.0029C66.0889 16.4376 64.8934 16.2059 64.0916 15.4179C57.6658 9.1032 49.0128 5.5708 40.0036 5.5814H40C20.9906 5.5814 5.58141 20.9906 5.58139 40V40.0036C5.57855 44.74 6.55347 49.4258 8.44477 53.7682C9.0601 55.1808 8.4144 56.826 7.00218 57.4419C5.58951 58.0572 3.94435 57.4116 3.32849 55.9993C1.40482 51.583 0.295475 46.8599 0.0508721 42.0603L0 40ZM43.7209 40C43.7209 37.945 42.055 36.2791 40 36.2791C37.945 36.2791 36.2791 37.945 36.2791 40C36.2791 42.055 37.945 43.7209 40 43.7209C42.055 43.7209 43.7209 42.055 43.7209 40ZM49.3023 40C49.3023 45.1375 45.1375 49.3023 40 49.3023C34.8625 49.3023 30.6977 45.1375 30.6977 40C30.6977 34.8625 34.8625 30.6977 40 30.6977C45.1375 30.6977 49.3023 34.8625 49.3023 40ZM59.3568 40C59.3568 40.2501 59.4021 40.5615 59.4949 40.8612C59.5397 41.0057 59.5913 41.1283 59.6366 41.2209C59.6611 41.2708 59.6816 41.3051 59.6948 41.3263L61.8641 43.7972C62.3307 44.3264 62.8454 44.9015 63.2231 45.4397C63.6443 46.0399 64.0639 46.8174 64.1679 47.8234L64.1897 48.194C64.2072 49.0374 63.9855 49.7594 63.7355 50.3452C63.4766 50.9516 63.0912 51.6175 62.7398 52.2384L61.657 54.1533C61.2823 54.8141 60.8845 55.5286 60.4724 56.0901C60.0171 56.71 59.3657 57.4045 58.3612 57.8161L58.3576 57.8125C57.3603 58.2235 56.4192 58.1935 55.6577 58.0705C54.9681 57.9591 54.1851 57.7282 53.4629 57.5182V57.5145L50.9084 56.7878C50.5571 56.7117 50.2059 56.7571 49.8983 56.915L49.335 57.2456C49.0661 57.4263 48.852 57.6968 48.7282 58.0269L48.0305 60.1344L48.0342 60.1381C47.813 60.8171 47.5805 61.546 47.3074 62.1439C47.0056 62.8045 46.5489 63.5545 45.7449 64.1497L45.7376 64.1533C44.9217 64.7521 44.0614 64.9592 43.3358 65.0436C42.6856 65.1192 41.9252 65.1163 41.2282 65.1163H38.7791C38.0878 65.1163 37.3249 65.122 36.6751 65.0472C35.9497 64.9637 35.0833 64.7569 34.2624 64.1497C33.4583 63.5545 33.0017 62.8045 32.6999 62.1439C32.4267 61.546 32.1943 60.8171 31.9731 60.1381V60.1344L31.2718 58.0087C31.1377 57.6745 30.9175 57.4105 30.6541 57.2347L30.1054 56.915C29.7917 56.7575 29.4344 56.7117 29.0916 56.7878L26.5407 57.5145L26.5443 57.5182C25.8222 57.7282 25.0391 57.9591 24.3496 58.0705C23.5873 58.1936 22.6445 58.2249 21.6461 57.8125C20.6424 57.4007 19.9936 56.7097 19.5385 56.0901C19.1259 55.5284 18.7253 54.8147 18.3503 54.1533L18.3467 54.1497L17.2638 52.2347V52.2311C16.9133 51.6135 16.5303 50.9508 16.2718 50.3452C15.9849 49.673 15.7364 48.8259 15.8394 47.8234L15.8939 47.4564C16.0492 46.6253 16.416 45.9645 16.7842 45.4397C17.1625 44.9005 17.6743 44.3273 18.1432 43.7972L20.3161 41.319C20.3309 41.2945 20.3495 41.2604 20.3706 41.2173C20.4164 41.1238 20.4677 41.0015 20.5124 40.8576C20.6048 40.5588 20.6504 40.2494 20.6504 40C20.6504 39.7499 20.6051 39.4385 20.5124 39.1388C20.4676 38.9943 20.416 38.8717 20.3706 38.7791C20.3432 38.7233 20.3217 38.6867 20.3089 38.6664L18.1395 36.1991C17.6714 35.6683 17.1615 35.095 16.7842 34.5567C16.3645 33.958 15.9434 33.1815 15.8394 32.1766L15.8176 31.806C15.8001 30.9626 16.0218 30.2406 16.2718 29.6548C16.5306 29.0485 16.9161 28.3825 17.2674 27.7616L18.3503 25.8467C18.7261 25.1822 19.125 24.4686 19.5385 23.9063C19.9959 23.2843 20.6446 22.5944 21.6461 22.1839C22.644 21.772 23.5876 21.8065 24.3496 21.9295C25.0391 22.0409 25.8222 22.2718 26.5443 22.4818H26.5407L29.0952 23.2086C29.4474 23.2859 29.7968 23.2392 30.1054 23.0814L30.665 22.7544C30.9398 22.565 31.1499 22.2986 31.2718 21.9876L31.9767 19.8547C32.1967 19.1794 32.4287 18.4546 32.6999 17.8597C33.0005 17.2003 33.4562 16.447 34.2624 15.8503L34.2696 15.8467C35.0856 15.2479 35.9459 15.0408 36.6715 14.9564C37.3216 14.8808 38.082 14.8837 38.7791 14.8837H41.2282C41.9176 14.8837 42.679 14.878 43.3285 14.9528C44.0537 15.0363 44.9204 15.2431 45.7413 15.8503C46.5474 16.447 47.0031 17.2003 47.3038 17.8597C47.5749 18.4546 47.807 19.1794 48.0269 19.8547L48.7318 21.9985C48.8537 22.3068 49.0661 22.5696 49.3387 22.758L49.8946 23.0814C50.2085 23.2403 50.5648 23.2841 50.9084 23.2086L53.4593 22.4818L54.5712 22.1693C54.9425 22.0714 55.3097 21.9851 55.6541 21.9295C56.4152 21.8066 57.3571 21.7734 58.3539 22.1839C59.356 22.5943 60.0076 23.2841 60.4651 23.9063C60.8786 24.4686 61.2776 25.1822 61.6533 25.8467L62.5436 27.4237L62.5545 27.4346L62.7398 27.7616C63.0956 28.3886 63.4768 29.0544 63.7355 29.6657C64.0199 30.3382 64.2616 31.1767 64.1642 32.1657C64.0648 33.1751 63.6461 33.9571 63.2267 34.5567C62.849 35.0965 62.3335 35.6649 61.8641 36.1955L61.8677 36.1991L59.6948 38.6664C59.6818 38.687 59.6633 38.7248 59.6366 38.7791C59.5913 38.8717 59.5397 38.9943 59.4949 39.1388C59.4021 39.4385 59.3568 39.7499 59.3568 40Z" fill="var(--fill-0, #E2A4FF)"/>
</svg>
